<svg width="64" height="64" viewBox="0 0 64 64" fill="none" xmlns="http://www.w3.org/2000/svg">
<path fill-rule="evenodd" clip-rule="evenodd" d="M32.1578 28.5791H44.3331C45.8058 28.5791 46.9997 29.773 46.9997 31.2458V44.7591C46.9997 46.2319 45.8058 47.4258 44.3331 47.4258H26.1081C24.6353 47.4258 23.4414 46.2319 23.4414 44.7591V31.2458C23.4414 29.773 24.6353 28.5791 26.1081 28.5791H29.4912V23.8665C29.4912 20.7855 26.9935 18.2878 23.9124 18.2878C20.8313 18.2878 18.3337 20.7854 18.3337 23.8665V32.1123H15.667V23.8665C15.667 19.3127 19.3586 15.6211 23.9124 15.6211C28.4662 15.6211 32.1578 19.3127 32.1578 23.8665V28.5791Z" fill="#171717"/>
</svg>
