<svg width="25" height="24" viewBox="0 0 25 24" fill="none" xmlns="http://www.w3.org/2000/svg">
<path fill-rule="evenodd" clip-rule="evenodd" d="M19.2719 12C19.2719 15.6451 16.317 18.6 12.6719 18.6C9.0268 18.6 6.07188 15.6451 6.07188 12C6.07188 8.35492 9.0268 5.4 12.6719 5.4C16.317 5.4 19.2719 8.35492 19.2719 12ZM21.6719 12C21.6719 16.9706 17.6424 21 12.6719 21C7.70131 21 3.67188 16.9706 3.67188 12C3.67188 7.02944 7.70131 3 12.6719 3C17.6424 3 21.6719 7.02944 21.6719 12ZM12.3734 6.59998H12.9734C13.3048 6.59998 13.5734 6.8686 13.5734 7.19998V13.8C13.5734 14.1313 13.3048 14.4 12.9734 14.4H12.3734C12.0421 14.4 11.7734 14.1313 11.7734 13.8V7.19998C11.7734 6.8686 12.0421 6.59998 12.3734 6.59998ZM12.3734 15.6H12.9734C13.3048 15.6 13.5734 15.8686 13.5734 16.2V16.8C13.5734 17.1313 13.3048 17.4 12.9734 17.4H12.3734C12.0421 17.4 11.7734 17.1313 11.7734 16.8V16.2C11.7734 15.8686 12.0421 15.6 12.3734 15.6Z" fill="#D0D2D0"/>
</svg>
