<svg width="25" height="24" viewBox="0 0 25 24" fill="none" xmlns="http://www.w3.org/2000/svg">
<path d="M12.6717 3.99997C13.8535 3.99997 15.0239 4.23277 16.1158 4.68506C17.2077 5.13735 18.1999 5.80029 19.0356 6.63601C19.8713 7.47174 20.5343 8.46389 20.9866 9.55582C21.4389 10.6478 21.6717 11.8181 21.6717 13C21.6717 14.1819 21.4389 15.3522 20.9866 16.4441C20.5343 17.5361 19.8713 18.5282 19.0356 19.3639C18.1999 20.1997 17.2077 20.8626 16.1158 21.3149C15.0239 21.7672 13.8535 22 12.6717 22C10.2847 22 7.99552 21.0518 6.30769 19.3639C4.61986 17.6761 3.67165 15.3869 3.67165 13C3.67165 10.613 4.61986 8.32384 6.30769 6.63601C7.99552 4.94819 10.2847 3.99997 12.6717 3.99997ZM12.6717 5.99997C11.7524 5.99997 10.8421 6.18103 9.99287 6.53282C9.14359 6.8846 8.37191 7.40022 7.7219 8.05023C7.07189 8.70024 6.55628 9.47191 6.20449 10.3212C5.85271 11.1705 5.67165 12.0807 5.67165 13C5.67165 13.9192 5.85271 14.8295 6.20449 15.6788C6.55628 16.528 7.07189 17.2997 7.7219 17.9497C8.37191 18.5997 9.14359 19.1153 9.99287 19.4671C10.8421 19.8189 11.7524 20 12.6717 20C14.5282 20 16.3086 19.2625 17.6214 17.9497C18.9342 16.637 19.6717 14.8565 19.6717 13C19.6717 11.1435 18.9342 9.36298 17.6214 8.05023C16.3086 6.73747 14.5282 5.99997 12.6717 5.99997ZM17.3057 2.96997C17.3715 2.85629 17.4591 2.75668 17.5634 2.67686C17.6677 2.59703 17.7868 2.53854 17.9137 2.50474C18.0407 2.47094 18.173 2.46248 18.3033 2.47985C18.4335 2.49722 18.559 2.54008 18.6727 2.60597C19.9202 3.32827 21.0281 4.26849 21.9437 5.38197C22.1033 5.58761 22.1765 5.84741 22.1476 6.10615C22.1187 6.36489 21.9901 6.60217 21.789 6.76756C21.588 6.93294 21.3303 7.01339 21.0709 6.99181C20.8114 6.97023 20.5706 6.84831 20.3997 6.65197C19.6358 5.7233 18.7115 4.93922 17.6707 4.33697C17.4411 4.20419 17.2738 3.9857 17.2053 3.72955C17.1369 3.47339 17.173 3.19953 17.3057 2.96997ZM6.67165 2.60697C6.78531 2.54118 6.91082 2.49842 7.041 2.48113C7.17119 2.46384 7.3035 2.47237 7.43039 2.50621C7.55728 2.54006 7.67627 2.59857 7.78054 2.6784C7.88482 2.75823 7.97236 2.85782 8.03815 2.97147C8.10394 3.08513 8.1467 3.21064 8.16399 3.34082C8.18128 3.47101 8.17276 3.60332 8.13891 3.73021C8.10507 3.85711 8.04656 3.97609 7.96673 4.08037C7.8869 4.18465 7.78731 4.27218 7.67365 4.33797C6.63277 4.94052 5.70846 5.72495 4.94465 6.65397C4.86266 6.75957 4.76033 6.84766 4.64371 6.91302C4.52709 6.97838 4.39855 7.0197 4.26569 7.03453C4.13282 7.04935 3.99833 7.03739 3.87017 6.99934C3.74201 6.96129 3.62278 6.89793 3.51953 6.813C3.41629 6.72807 3.33111 6.62331 3.26905 6.5049C3.207 6.38648 3.16931 6.25683 3.15823 6.1236C3.14714 5.99037 3.16289 5.85627 3.20453 5.72923C3.24617 5.60219 3.31286 5.48479 3.40065 5.38397C4.31612 4.27012 5.424 3.32955 6.67165 2.60697Z" fill="#757575"/>
<path d="M11.2477 17.5691L11.7326 14.2308H9.67188L13.2987 9H13.5227L13.0475 12.7762H15.4719L11.4717 17.5691H11.2477Z" fill="#757575"/>
</svg>
