<svg width="25" height="24" viewBox="0 0 25 24" fill="none" xmlns="http://www.w3.org/2000/svg">
<path d="M18.7469 12.4836C18.4712 12.1868 18.3115 11.8008 18.2969 11.3961V9.78357C18.2969 6.74607 16.2719 4.15857 12.6719 4.15857C9.07187 4.15857 7.04688 6.67107 7.04688 9.78357V11.6586C7.03993 11.8959 6.94659 12.1226 6.78438 12.2961L5.39687 13.6836C5.25556 13.822 5.17469 14.0107 5.17188 14.2086V16.9086C5.17188 17.1075 5.25089 17.2982 5.39154 17.4389C5.5322 17.5796 5.72296 17.6586 5.92188 17.6586H10.0844C10.1887 18.2693 10.5057 18.8234 10.9792 19.2228C11.4528 19.6223 12.0523 19.8415 12.6719 19.8415C13.2914 19.8415 13.891 19.6223 14.3645 19.2228C14.8381 18.8234 15.155 18.2693 15.2594 17.6586H19.4219C19.6208 17.6586 19.8116 17.5796 19.9522 17.4389C20.0929 17.2982 20.1719 17.1075 20.1719 16.9086V14.2086C20.1691 14.0107 20.0882 13.822 19.9469 13.6836L18.7469 12.4836Z" fill="#757575"/>
</svg>
