<svg width="25" height="24" viewBox="0 0 25 24" fill="none" xmlns="http://www.w3.org/2000/svg">
<path fill-rule="evenodd" clip-rule="evenodd" d="M21.474 7.56524C21.474 7.15703 21.8049 6.82611 22.2131 6.82611H23.221C23.6292 6.82611 23.9602 7.15703 23.9602 7.56524V19.7609C23.9602 20.1691 23.6292 20.5 23.221 20.5H22.2131C21.8049 20.5 21.474 20.1691 21.474 19.7609V7.56524ZM17.7448 9.42987C17.7448 9.02166 18.0757 8.69074 18.4839 8.69074H19.4918C19.9 8.69074 20.2309 9.02166 20.2309 9.42987V19.7609C20.2309 20.1691 19.9 20.5 19.4918 20.5H18.4839C18.0757 20.5 17.7448 20.1691 17.7448 19.7609V9.42987ZM14.7547 10.5553C14.3465 10.5553 14.0156 10.8863 14.0156 11.2945V19.7609C14.0156 20.1691 14.3465 20.5 14.7547 20.5H15.7626C16.1708 20.5 16.5017 20.1691 16.5017 19.7609V11.2945C16.5017 10.8863 16.1708 10.5553 15.7626 10.5553H14.7547ZM10.2863 13.1591C10.2863 12.7509 10.6173 12.42 11.0255 12.42H12.0334C12.4416 12.42 12.7725 12.7509 12.7725 13.1591V19.7609C12.7725 20.1691 12.4416 20.5 12.0334 20.5H11.0255C10.6173 20.5 10.2863 20.1691 10.2863 19.7609V13.1591ZM7.29626 14.2846C6.88805 14.2846 6.55713 14.6155 6.55713 15.0237V19.7609C6.55713 20.1691 6.88805 20.5 7.29626 20.5H8.30416C8.71237 20.5 9.04329 20.1691 9.04329 19.7609V15.0237C9.04329 14.6155 8.71238 14.2846 8.30417 14.2846H7.29626Z" fill="#D0D2D0"/>
<path d="M1.92656 8.5V4.87826H2.44395V8.04987H4.40487V8.5H1.92656ZM5.37922 8.5V5.32839H4.13748V4.87826H7.13318V5.32839H5.89144V8.5H5.37922ZM8.16751 6.44078H10.0301V6.88057H8.16751V6.44078ZM8.21408 8.04987H10.325V8.5H7.69669V4.87826H10.2526V5.32839H8.21408V8.04987Z" fill="#D0D2D0"/>
</svg>
