<svg width="25" height="24" viewBox="0 0 25 24" fill="none" xmlns="http://www.w3.org/2000/svg">
<path d="M14.3719 12.0008L18.5385 8.0529C18.668 7.93178 18.7687 7.78321 18.8333 7.61809C18.8979 7.45296 18.9246 7.27547 18.9117 7.09864C18.8987 6.92182 18.8463 6.75014 18.7583 6.59622C18.6702 6.4423 18.5489 6.31004 18.4031 6.20915L13.5385 2.84456C13.3561 2.71685 13.1422 2.64155 12.9199 2.62686C12.6977 2.61217 12.4758 2.65864 12.2781 2.76123C12.0866 2.86062 11.9256 3.00987 11.8119 3.19321C11.6982 3.37656 11.6361 3.5872 11.6323 3.8029V10.2612L8.30935 6.09456C8.12978 5.87908 7.87196 5.74375 7.5926 5.71835C7.31325 5.69296 7.03526 5.77957 6.81977 5.95915C6.60428 6.13872 6.46895 6.39654 6.44356 6.67589C6.41816 6.95524 6.50478 7.23324 6.68435 7.44873L10.2989 12.0008L6.6531 16.6154C6.48278 16.8313 6.40472 17.1057 6.43594 17.3789C6.46716 17.6521 6.60513 17.9019 6.81977 18.0737C7.00969 18.2022 7.2367 18.2645 7.4656 18.2508C7.62206 18.2501 7.77636 18.2141 7.91702 18.1456C8.05768 18.0771 8.18109 17.9777 8.2781 17.855L11.6323 13.6258V20.1779C11.635 20.4966 11.7635 20.8012 11.9898 21.0256C12.2162 21.25 12.5219 21.3758 12.8406 21.3758C13.0903 21.3767 13.3341 21.3003 13.5385 21.1571L18.3719 17.8446C18.516 17.7427 18.6362 17.6108 18.7244 17.4579C18.8125 17.3051 18.8664 17.1349 18.8823 16.9591C18.896 16.7849 18.8714 16.6097 18.8102 16.446C18.749 16.2822 18.6527 16.1338 18.5281 16.0112L14.3719 12.0008ZM13.7156 5.50081L16.3198 7.3029L13.7156 9.76123V5.50081ZM13.7156 18.5112V14.2716L16.2885 16.7508L13.7156 18.5112Z" fill="#757575"/>
</svg>
