<svg width="49" height="48" viewBox="0 0 49 48" fill="none" xmlns="http://www.w3.org/2000/svg">
<g clip-path="url(#clip0_12_10921)">
<rect x="3.67188" y="3" width="41" height="42" rx="2" fill="url(#paint0_linear_12_10921)"/>
<g filter="url(#filter0_d_12_10921)">
<path d="M14.6719 16.535L33.4003 30.2465C33.5355 30.3456 33.5369 30.547 33.403 30.6479L25.3723 36.6983C25.2076 36.8224 24.9719 36.7049 24.9719 36.4986V11.5115C24.9719 11.3034 25.2113 11.1864 25.3755 11.3142L33.4113 17.5702C33.5421 17.6721 33.5394 17.8706 33.4059 17.9689L14.6719 31.7563" stroke="white" stroke-width="2" shape-rendering="crispEdges"/>
</g>
<rect x="3.67188" y="3" width="41" height="42" rx="7" fill="url(#paint1_linear_12_10921)"/>
<g filter="url(#filter1_d_12_10921)">
<path d="M14.6719 16.535L33.4003 30.2465C33.5355 30.3456 33.5369 30.547 33.403 30.6479L25.3723 36.6983C25.2076 36.8224 24.9719 36.7049 24.9719 36.4986V11.5115C24.9719 11.3034 25.2113 11.1864 25.3755 11.3142L33.4113 17.5702C33.5421 17.6721 33.5394 17.8706 33.4059 17.9689L14.6719 31.7563" stroke="white" stroke-width="2" shape-rendering="crispEdges"/>
</g>
</g>
<defs>
<filter id="filter0_d_12_10921" x="10.0791" y="10.2592" width="36.4287" height="43.4918" filterUnits="userSpaceOnUse" color-interpolation-filters="sRGB">
<feFlood flood-opacity="0" result="BackgroundImageFix"/>
<feColorMatrix in="SourceAlpha" type="matrix" values="0 0 0 0 0 0 0 0 0 0 0 0 0 0 0 0 0 0 127 0" result="hardAlpha"/>
<feOffset dx="4" dy="8"/>
<feGaussianBlur stdDeviation="4"/>
<feComposite in2="hardAlpha" operator="out"/>
<feColorMatrix type="matrix" values="0 0 0 0 0 0 0 0 0 0 0 0 0 0 1 0 0 0 1 0"/>
<feBlend mode="normal" in2="BackgroundImageFix" result="effect1_dropShadow_12_10921"/>
<feBlend mode="normal" in="SourceGraphic" in2="effect1_dropShadow_12_10921" result="shape"/>
</filter>
<filter id="filter1_d_12_10921" x="10.0791" y="10.2592" width="36.4287" height="43.4918" filterUnits="userSpaceOnUse" color-interpolation-filters="sRGB">
<feFlood flood-opacity="0" result="BackgroundImageFix"/>
<feColorMatrix in="SourceAlpha" type="matrix" values="0 0 0 0 0 0 0 0 0 0 0 0 0 0 0 0 0 0 127 0" result="hardAlpha"/>
<feOffset dx="4" dy="8"/>
<feGaussianBlur stdDeviation="4"/>
<feComposite in2="hardAlpha" operator="out"/>
<feColorMatrix type="matrix" values="0 0 0 0 0 0 0 0 0 0 0 0 0 0 1 0 0 0 1 0"/>
<feBlend mode="normal" in2="BackgroundImageFix" result="effect1_dropShadow_12_10921"/>
<feBlend mode="normal" in="SourceGraphic" in2="effect1_dropShadow_12_10921" result="shape"/>
</filter>
<linearGradient id="paint0_linear_12_10921" x1="24.1719" y1="3" x2="24.1719" y2="45" gradientUnits="userSpaceOnUse">
<stop offset="0.00931923" stop-color="#0082FC"/>
<stop offset="1" stop-color="#0033FF"/>
</linearGradient>
<linearGradient id="paint1_linear_12_10921" x1="24.1719" y1="3" x2="24.1719" y2="45" gradientUnits="userSpaceOnUse">
<stop offset="0.00931923" stop-color="#0082FC"/>
<stop offset="1" stop-color="#0033FF"/>
</linearGradient>
<clipPath id="clip0_12_10921">
<rect width="48" height="48" fill="white" transform="translate(0.671875)"/>
</clipPath>
</defs>
</svg>
