<svg width="49" height="48" viewBox="0 0 49 48" fill="none" xmlns="http://www.w3.org/2000/svg">
<g clip-path="url(#clip0_12_10906)">
<path d="M42.9307 5H5.41305C4.45143 5 3.67188 5.77955 3.67188 6.74118V40.2588C3.67188 41.2204 4.45143 42 5.41305 42H42.9307C43.8923 42 44.6719 41.2204 44.6719 40.2588V6.74118C44.6719 5.77955 43.8923 5 42.9307 5Z" fill="white"/>
<path d="M44.9191 5H3.42086C2.45924 5 1.67969 5.77955 1.67969 6.74118V10.2235C1.67969 11.1852 2.45924 11.9647 3.42086 11.9647H44.9191C45.8807 11.9647 46.6603 11.1852 46.6603 10.2235V6.74118C46.6603 5.77955 45.8807 5 44.9191 5Z" fill="#DD3344"/>
<path d="M13.193 34V31.7841L18.3706 26.9901C18.8109 26.5639 19.1803 26.1804 19.4786 25.8395C19.7816 25.4986 20.0112 25.1648 20.1675 24.8381C20.3237 24.5066 20.4018 24.1491 20.4018 23.7656C20.4018 23.3395 20.3048 22.9725 20.1107 22.6648C19.9165 22.3523 19.6514 22.1132 19.3152 21.9474C18.979 21.777 18.5979 21.6918 18.1717 21.6918C17.7267 21.6918 17.3384 21.7817 17.007 21.9616C16.6755 22.1416 16.4198 22.3996 16.2399 22.7358C16.06 23.072 15.97 23.4721 15.97 23.9361H13.051C13.051 22.9844 13.2664 22.1581 13.6973 21.4574C14.1282 20.7566 14.7319 20.2145 15.5084 19.831C16.2849 19.4474 17.1798 19.2557 18.193 19.2557C19.2347 19.2557 20.1414 19.4403 20.9132 19.8097C21.6897 20.1742 22.2934 20.6809 22.7243 21.3295C23.1552 21.9782 23.3706 22.7216 23.3706 23.5597C23.3706 24.1089 23.2617 24.651 23.0439 25.1861C22.8308 25.7211 22.4497 26.3153 21.9004 26.9688C21.3512 27.6174 20.577 28.3963 19.578 29.3054L17.4544 31.3864V31.4858H23.5624V34H13.193ZM31.4938 34.3196C30.2722 34.3149 29.2211 34.0142 28.3404 33.4176C27.4645 32.821 26.7897 31.9569 26.3163 30.8253C25.8475 29.6937 25.6155 28.3324 25.6202 26.7415C25.6202 25.1553 25.8546 23.8035 26.3234 22.6861C26.7969 21.5687 27.4716 20.7187 28.3475 20.1364C29.2282 19.5492 30.277 19.2557 31.4938 19.2557C32.7107 19.2557 33.7571 19.5492 34.633 20.1364C35.5137 20.7235 36.1908 21.5758 36.6643 22.6932C37.1378 23.8059 37.3721 25.1553 37.3674 26.7415C37.3674 28.3371 37.1307 29.7008 36.6572 30.8324C36.1884 31.964 35.5161 32.8281 34.6401 33.4247C33.7642 34.0213 32.7154 34.3196 31.4938 34.3196ZM31.4938 31.7699C32.3272 31.7699 32.9924 31.3509 33.4896 30.5128C33.9867 29.6747 34.2329 28.4176 34.2282 26.7415C34.2282 25.6383 34.1146 24.7197 33.8873 23.9858C33.6647 23.2519 33.3475 22.7003 32.9356 22.331C32.5284 21.9616 32.0478 21.777 31.4938 21.777C30.6652 21.777 30.0023 22.1913 29.5052 23.0199C29.008 23.8485 28.7571 25.089 28.7523 26.7415C28.7523 27.8589 28.8636 28.7917 29.0862 29.5398C29.3134 30.2831 29.633 30.8419 30.045 31.2159C30.4569 31.5852 30.9398 31.7699 31.4938 31.7699Z" fill="#667777"/>
</g>
<defs>
<clipPath id="clip0_12_10906">
<rect x="3.67188" y="5" width="41" height="37" rx="1.74118" fill="white"/>
</clipPath>
</defs>
</svg>
