<svg width="49" height="48" viewBox="0 0 49 48" fill="none" xmlns="http://www.w3.org/2000/svg">
<rect x="3.67188" y="3" width="42" height="42" rx="7" fill="url(#paint0_linear_27_6377)"/>
<g clip-path="url(#clip0_27_6377)">
<g filter="url(#filter0_d_27_6377)">
<path fill-rule="evenodd" clip-rule="evenodd" d="M25.9876 23.7104C26.8338 24.5229 27.7166 25.1836 28.5713 25.6587C29.0015 25.8977 29.4232 26.0889 29.8421 26.2267C29.9883 26.2745 30.1317 26.3082 30.2807 26.3419L12.9113 41.7967V41.7995C12.5402 42.1847 11.2328 41.5296 9.99578 40.3375C8.7531 39.1455 8.05304 37.8634 8.42135 37.4783L23.1929 19.5212C23.2009 19.5516 23.2085 19.5821 23.2161 19.6127C23.238 19.7011 23.26 19.7899 23.2913 19.8755C23.5219 20.5109 23.8733 21.1491 24.3288 21.7929C24.7814 22.4368 25.3409 23.089 25.9876 23.7104ZM25.3016 12.7456C25.5242 12.388 25.7723 12.047 26.0438 11.725C26.5527 12.5347 28.203 14.9694 31.4222 18.0621C34.6329 21.1491 37.1295 22.7067 37.9617 23.1874C37.6468 23.4742 37.3151 23.7357 36.9721 23.969C35.9965 24.6297 34.6919 25.088 33.23 25.0993C32.8167 25.1021 32.3949 25.0711 31.9676 24.998C31.938 24.9947 31.9103 24.9886 31.8823 24.9823C31.8625 24.9779 31.8424 24.9734 31.8214 24.9699C31.8186 24.9671 31.8158 24.9671 31.813 24.9671C30.3173 24.6888 28.7288 23.924 27.1993 22.4508H27.1965C25.667 20.9776 24.8433 19.42 24.5031 17.9356V17.9299C24.3934 17.4576 24.3344 16.9881 24.3175 16.5354C24.2697 15.0707 24.6746 13.7464 25.3016 12.7456ZM27.4056 10.4728C30.2902 8.36138 34.4568 7.74567 38.0274 11.1813C41.6008 14.6141 41.1454 18.8033 39.1492 21.7694C39.0986 21.73 39.0452 21.6935 38.9861 21.6626C38.899 21.6176 36.2843 20.2203 32.68 16.7509C30.8159 14.96 29.5198 13.4136 28.6905 12.3228C28.3762 11.9108 28.0752 11.4888 27.788 11.0576C27.7221 10.9569 27.6696 10.8735 27.6286 10.8084C27.6101 10.779 27.5939 10.7533 27.5799 10.7315L27.5349 10.6528L27.5237 10.6359C27.4899 10.5768 27.4478 10.5234 27.4056 10.4728ZM24.6961 26.5243C24.6961 26.1676 24.5545 25.8256 24.3024 25.5733L24.3057 25.5716C24.1807 25.4464 24.0321 25.3471 23.8686 25.2794C23.705 25.2117 23.5297 25.1769 23.3527 25.1771C23.1757 25.1772 23.0005 25.2123 22.8371 25.2803C22.6737 25.3483 22.5253 25.4479 22.4004 25.5733L21.0551 26.9186C20.9249 27.0423 20.8208 27.1908 20.7489 27.3554C20.6771 27.5199 20.6388 27.6972 20.6365 27.8767C20.6342 28.0563 20.6679 28.2345 20.7356 28.4008C20.8032 28.5672 20.9035 28.7183 21.0305 28.8452C21.1574 28.9722 21.3085 29.0725 21.4749 29.1401C21.6412 29.2078 21.8194 29.2415 21.999 29.2392C22.1785 29.2369 22.3558 29.1986 22.5203 29.1267C22.6849 29.0549 22.8334 28.9508 22.9571 28.8206L24.3024 27.4753C24.5545 27.223 24.6961 26.8809 24.6961 26.5243Z" fill="white"/>
</g>
</g>
<defs>
<filter id="filter0_d_27_6377" x="7.48242" y="8.24227" width="34.7156" height="35.5174" filterUnits="userSpaceOnUse" color-interpolation-filters="sRGB">
<feFlood flood-opacity="0" result="BackgroundImageFix"/>
<feColorMatrix in="SourceAlpha" type="matrix" values="0 0 0 0 0 0 0 0 0 0 0 0 0 0 0 0 0 0 127 0" result="hardAlpha"/>
<feOffset dx="0.336328" dy="0.672656"/>
<feGaussianBlur stdDeviation="0.588574"/>
<feComposite in2="hardAlpha" operator="out"/>
<feColorMatrix type="matrix" values="0 0 0 0 0.339019 0 0 0 0 0 0 0 0 0 0.829167 0 0 0 1 0"/>
<feBlend mode="normal" in2="BackgroundImageFix" result="effect1_dropShadow_27_6377"/>
<feBlend mode="normal" in="SourceGraphic" in2="effect1_dropShadow_27_6377" result="shape"/>
</filter>
<linearGradient id="paint0_linear_27_6377" x1="3.67188" y1="3" x2="45.6719" y2="46.0664" gradientUnits="userSpaceOnUse">
<stop stop-color="#BD1DFF"/>
<stop offset="1" stop-color="#2C59FF"/>
</linearGradient>
<clipPath id="clip0_27_6377">
<rect width="35.9871" height="35.9871" fill="white" transform="translate(6.67871 6.00641)"/>
</clipPath>
</defs>
</svg>
