<svg width="49" height="48" viewBox="0 0 49 48" fill="none" xmlns="http://www.w3.org/2000/svg">
<g clip-path="url(#clip0_52_28917)">
<path d="M25.0685 9C30.863 9 35.0043 9.87509 37.783 10.8179L38.5065 11.0742L39.1635 11.3342C39.2676 11.3763 39.3699 11.4184 39.4686 11.4623L40.0287 11.7113C40.1184 11.7516 40.2028 11.7937 40.2854 11.834L40.7521 12.0683C40.8257 12.1049 40.8957 12.1434 40.9639 12.18C42.5705 13.0532 42.987 14.9188 42.4502 16.3778L37.521 29.7806C37.3451 30.2228 37.007 30.5775 36.5786 30.7691C36.1501 30.9608 35.6652 30.9743 35.2272 30.8068C34.7891 30.6392 34.4325 30.3039 34.2333 29.8722C34.0341 29.4405 34.008 28.9465 34.1606 28.4955L39.0198 15.2776L38.6429 15.0927L38.2085 14.8913L37.7112 14.6844L37.1512 14.4684L36.846 14.3585L36.1908 14.1425L35.4692 13.9265C35.341 13.8896 35.2123 13.8542 35.0832 13.8203L34.2593 13.6134C34.1135 13.5794 33.9675 13.5464 33.8213 13.5146L32.895 13.3278C30.8056 12.9361 28.2171 12.6615 25.0667 12.6615C19.3961 12.6615 16.3714 13.0789 14.0844 13.6134L13.2605 13.8203C13.1315 13.8542 13.0028 13.8896 12.8746 13.9265L12.1529 14.1425L11.4959 14.3604L10.9036 14.5764L10.6325 14.6844L10.1353 14.8931L9.69908 15.0927L9.32211 15.2757L14.1832 28.4936C14.2712 28.7198 14.3142 28.9615 14.3096 29.2048C14.3049 29.448 14.2528 29.6879 14.1562 29.9104C14.0597 30.1329 13.9206 30.3335 13.7471 30.5005C13.5736 30.6675 13.3692 30.7976 13.1459 30.8831C12.9226 30.9687 12.6847 31.0079 12.4464 30.9987C12.208 30.9894 11.9738 30.9317 11.7575 30.8291C11.5412 30.7264 11.3471 30.5808 11.1866 30.4008C11.0262 30.2208 10.9025 30.01 10.8228 29.7806L5.89352 16.3797C5.35679 14.9188 5.77325 13.0532 7.37984 12.18L7.81604 11.953C7.89323 11.9127 7.97401 11.8742 8.05658 11.834L8.58613 11.5868C8.77282 11.5044 8.97027 11.4184 9.1785 11.3342L9.8373 11.076L10.5607 10.8179C13.3395 9.87509 17.4807 9 25.0685 9Z" fill="#D0D1D2"/>
<path d="M20.5393 31.963C20.5393 34.8449 17.7884 37.4649 17.5264 37.7269C17.2644 37.9889 16.8714 38.1199 16.6094 38.1199C16.2164 38.1199 15.9544 37.9889 15.5614 37.5959C15.1684 37.0719 15.1684 36.2859 15.6924 35.7619C16.3474 35.2379 17.9194 33.404 17.9194 31.963C17.9194 31.177 17.3954 30.391 16.8714 29.474C16.0854 28.426 15.2994 27.116 15.2994 25.544C15.2994 22.531 17.0024 21.3521 17.2644 21.2211C17.7884 20.9591 18.7054 21.0901 18.9674 21.6141C19.3604 22.2691 19.2294 23.055 18.5744 23.448C18.5744 23.448 17.9194 23.972 17.9194 25.544C17.9194 26.461 18.4434 27.247 18.9674 28.033C19.7533 29.081 20.5393 30.391 20.5393 31.963ZM24.6836 25.544C24.6836 23.972 25.3386 23.448 25.3386 23.448C25.9936 23.055 26.1246 22.2691 25.7316 21.6141C25.3386 20.9591 24.5526 20.8281 23.8976 21.2211C23.6356 21.3521 21.9326 22.531 21.9326 25.544C21.9326 27.116 22.7186 28.426 23.5046 29.474C24.0286 30.391 24.5526 31.177 24.5526 31.963C24.5526 33.404 22.9806 35.2379 22.3256 35.7619C21.8016 36.2859 21.8016 37.0719 22.1946 37.5959C22.4566 37.8579 22.8496 37.9889 23.1116 37.9889C23.6356 38.1199 24.0286 37.9889 24.2906 37.7269C24.5526 37.4649 27.3036 34.8449 27.3036 31.963C27.3036 30.391 26.5176 29.081 25.7316 28.033C25.2076 27.116 24.6836 26.33 24.6836 25.544ZM31.1855 25.675C31.1855 24.103 31.8405 23.579 31.8405 23.579C32.3645 23.186 32.6265 22.4001 32.2335 21.7451C31.8405 21.2211 31.0545 20.9591 30.3995 21.3521C30.1375 21.4831 28.4346 22.662 28.4346 25.675C28.4346 27.247 29.3515 28.557 30.0065 29.605C30.5305 30.522 31.0545 31.308 31.0545 32.094C31.0545 33.535 29.4825 35.3689 28.8276 35.8929C28.3036 36.4169 28.1726 37.2029 28.6966 37.7269C28.9586 37.9889 29.2205 38.1199 29.6135 38.1199C29.8755 38.1199 30.2685 37.9889 30.7925 37.8579C31.0545 37.5959 33.8055 34.9759 33.8055 32.094C33.8055 30.522 32.8885 29.212 32.2335 28.164C31.7095 27.247 31.1855 26.461 31.1855 25.675Z" fill="#D0D1D2"/>
</g>
<defs>
<clipPath id="clip0_52_28917">
<rect width="48" height="48" fill="white" transform="translate(0.671875)"/>
</clipPath>
</defs>
</svg>
