<svg width="49" height="48" viewBox="0 0 49 48" fill="none" xmlns="http://www.w3.org/2000/svg">
<g clip-path="url(#clip0_26_6046)">
<path fill-rule="evenodd" clip-rule="evenodd" d="M6.67188 10.9231C6.67188 9.6174 7.17759 8.36519 8.07776 7.44194C8.97794 6.51868 10.1988 6 11.4719 6H33.8719C35.1449 6 36.3658 6.51868 37.266 7.44194C38.1662 8.36519 38.6719 9.6174 38.6719 10.9231V27.3333C38.6719 28.639 38.1662 29.8912 37.266 30.8145C36.3658 31.7377 35.1449 32.2564 33.8719 32.2564H21.6047L16.2719 36.359C15.5011 36.9519 14.6719 38 13.0719 38C13.0719 38 13.0719 35.4201 13.0719 34.7179V32.2564H11.4719C10.1988 32.2564 8.97794 31.7377 8.07776 30.8145C7.17759 29.8912 6.67188 28.639 6.67188 27.3333V10.9231Z" fill="#00A2FF"/>
<path fill-rule="evenodd" clip-rule="evenodd" d="M42.6719 23.3846C42.6719 22.487 42.3242 21.6261 41.7053 20.9913C41.0865 20.3566 40.2471 20 39.3719 20H23.9719C23.0967 20 22.2573 20.3566 21.6384 20.9913C21.0196 21.6261 20.6719 22.487 20.6719 23.3846V34.6667C20.6719 35.5643 21.0196 36.4252 21.6384 37.06C22.2573 37.6947 23.0967 38.0513 23.9719 38.0513H32.4056L36.0719 40.8718C36.6018 41.2794 37.1719 42 38.2719 42C38.2719 42 38.2719 40.2263 38.2719 39.7436V38.0513H39.3719C40.2471 38.0513 41.0865 37.6947 41.7053 37.06C42.3242 36.4252 42.6719 35.5643 42.6719 34.6667V23.3846Z" fill="white"/>
<path d="M28.4219 29C28.223 29 28.0322 29.079 27.8915 29.2197C27.7509 29.3603 27.6719 29.5511 27.6719 29.75C27.6719 29.9489 27.7509 30.1397 27.8915 30.2803C28.0322 30.421 28.223 30.5 28.4219 30.5C28.8381 30.5 29.1719 30.1662 29.1719 29.75C29.1719 29.5511 29.0929 29.3603 28.9522 29.2197C28.8116 29.079 28.6208 29 28.4219 29Z" fill="#414141"/>
<path d="M32.1221 29C31.9232 29 31.7324 29.079 31.5917 29.2197C31.4511 29.3603 31.3721 29.5511 31.3721 29.75C31.3721 29.9489 31.4511 30.1397 31.5917 30.2803C31.7324 30.421 31.9232 30.5 32.1221 30.5C32.5383 30.5 32.8721 30.1662 32.8721 29.75C32.8721 29.5511 32.7931 29.3603 32.6524 29.2197C32.5117 29.079 32.321 29 32.1221 29Z" fill="#414141"/>
<path d="M35.8218 29C35.6229 29 35.4321 29.079 35.2914 29.2197C35.1508 29.3603 35.0718 29.5511 35.0718 29.75C35.0718 29.9489 35.1508 30.1397 35.2914 30.2803C35.4321 30.421 35.6229 30.5 35.8218 30.5C36.238 30.5 36.5718 30.1662 36.5718 29.75C36.5718 29.5511 36.4928 29.3603 36.3521 29.2197C36.2115 29.079 36.0207 29 35.8218 29Z" fill="#414141"/>
</g>
<defs>
<clipPath id="clip0_26_6046">
<rect width="48" height="48" fill="white" transform="translate(0.671875)"/>
</clipPath>
</defs>
</svg>
