<svg width="49" height="48" viewBox="0 0 49 48" fill="none" xmlns="http://www.w3.org/2000/svg">
<path d="M45.1824 33.3361C45.1305 33.7977 45.0361 34.2535 44.904 34.6027C44.6586 35.2241 44.4274 35.2833 43.5025 35.2241C42.3086 35.159 40.6051 35.2241 38.7977 35.3129C38.7977 35.9344 38.8166 36.2303 38.8166 36.2303C38.9346 37.9408 39.5481 38 39.7934 38C40.0624 38 43.3326 38 43.6771 38C44.0216 38 44.3094 38 44.5784 37.7988C44.904 37.562 45.0314 36.7807 45.1494 35.455C45.1682 35.2596 45.1777 35.0111 45.1871 34.721V34.7092C45.1871 34.6204 45.1966 34.508 45.1966 34.3777C45.1966 34.3304 45.1966 34.289 45.1966 34.2535C45.1824 33.9516 45.1824 33.6083 45.1824 33.3361Z" fill="#D0D1D2"/>
<path d="M3.16139 33.3361C3.2133 33.7977 3.30768 34.2535 3.4398 34.6027C3.68519 35.2241 3.91641 35.2833 4.84131 35.2241C6.03519 35.159 7.73871 35.2241 9.54604 35.3129C9.54604 35.9344 9.52717 36.2303 9.52717 36.2303C9.4092 37.9408 8.79574 38 8.55036 38C8.28138 38 5.01119 38 4.66671 38C4.32224 38 4.03438 38 3.76541 37.7988C3.4398 37.562 3.31239 36.7807 3.19442 35.455C3.17555 35.2596 3.16611 35.0111 3.15667 34.721V34.7092C3.15667 34.6204 3.14723 34.508 3.14723 34.3777C3.14723 34.3304 3.14723 34.289 3.14723 34.2535C3.16139 33.9516 3.16139 33.6083 3.16139 33.3361Z" fill="#D0D1D2"/>
<path d="M45.6719 26.5409C45.6719 23.9082 45.334 21.3381 45.2024 21.0561C45.1015 20.8501 44.4565 20.3083 42.9866 19.292C41.4991 18.2532 41.5342 18.4099 41.2666 17.7338C41.5123 17.6577 41.7448 17.51 41.8896 17.4921C42.2099 17.4562 42.2275 17.7652 42.89 17.7652C43.5526 17.7652 44.9918 17.5861 45.2858 17.2861C45.5797 16.9861 45.6719 16.8831 45.6719 16.619C45.6719 16.3548 45.5227 15.8041 45.2331 15.4772C44.9479 15.1504 43.7281 14.9892 43.0173 14.8952C42.3021 14.8012 42.2012 14.8952 42.0169 15.0161C41.7229 15.2041 41.7053 16.9279 41.7053 16.9279L41.0077 16.9458C40.5558 15.8041 39.9239 13.5072 38.9411 11.7028C37.8661 9.73275 36.7428 9.11487 36.2689 8.95816C35.8082 8.81041 35.387 8.70743 32.2366 8.38505C29.0203 8.0403 26.4579 8 24.1719 8C21.8859 8 19.3278 8.04925 16.1072 8.38505C12.9568 8.72086 12.5399 8.81488 12.0748 8.95816C11.6141 9.10591 10.4777 9.72827 9.40269 11.7028C8.41983 13.5117 7.788 15.8086 7.33606 16.9458L6.63841 16.9279C6.63841 16.9279 6.62963 15.2041 6.32688 15.0161C6.14259 14.8952 6.04167 14.7922 5.32647 14.8952C4.61126 14.9982 3.39585 15.1504 3.11065 15.4772C2.82545 15.8041 2.67188 16.3503 2.67188 16.619C2.67188 16.8831 2.76402 16.9951 3.058 17.2861C3.35198 17.5861 4.78677 17.7652 5.45371 17.7652C6.12065 17.7652 6.13381 17.4562 6.45412 17.4921C6.59892 17.51 6.84024 17.6532 7.07718 17.7338C6.80075 18.4099 6.84024 18.2577 5.35718 19.292C3.88728 20.3218 3.23351 20.8501 3.14136 21.0561C3.00973 21.3381 2.67188 23.9126 2.67188 26.5409C2.67188 29.1736 2.85616 31.5376 2.85616 32.3749C2.85616 32.7241 2.85616 33.342 2.93075 33.933C2.97902 34.2823 3.058 34.627 3.18963 34.8912C3.41779 35.3613 3.62841 35.4061 4.49279 35.3613C5.6029 35.3121 7.20443 35.3613 8.85861 35.4285C9.96871 35.4733 11.1008 35.5135 12.1099 35.5404C14.6285 35.5897 16.0969 35.437 17.1719 35.455C18.2469 35.4729 20.2843 35.3792 24.1631 35.3792C28.0419 35.3792 31.6056 35.5583 32.6719 35.5404C33.7469 35.5225 33.6977 35.5941 36.2163 35.5404C37.2254 35.5225 38.3575 35.4733 39.4676 35.4285C41.1218 35.3703 42.7365 35.3076 43.8334 35.3613C44.6978 35.4061 44.9084 35.3613 45.1366 34.8912C45.2638 34.627 45.3472 34.2823 45.3955 33.933C45.4788 33.342 45.47 32.7241 45.47 32.3749C45.4876 31.5466 45.6719 29.1736 45.6719 26.5409ZM9.91167 13.5654C10.3153 12.6072 11.5264 10.6775 12.1099 10.3327C12.2547 10.2476 13.5052 9.84468 16.6381 9.62977C19.5209 9.43276 22.702 9.35665 24.1807 9.35665C25.6593 9.35665 28.8404 9.43276 31.7232 9.62977C34.8473 9.84468 36.1153 10.2387 36.2514 10.3327C37.0061 10.8655 38.0503 12.6028 38.4496 13.5654C38.8533 14.5236 39.3886 16.4085 39.2877 16.6682C39.1868 16.9279 39.3886 17.0533 38.0284 16.9413C36.677 16.8384 28.1867 16.7264 24.1894 16.7264C20.201 16.7264 11.7107 16.8384 10.3504 16.9413C8.99024 17.0443 9.19208 16.9234 9.09116 16.6682C8.97269 16.413 9.508 14.537 9.91167 13.5654ZM13.0007 24.2977C12.3951 24.4499 12.0353 24.7857 11.2807 24.7768C10.526 24.7768 8.48565 24.4275 8.04688 24.4096C7.6081 24.3917 7.22198 24.7096 6.9982 24.7678C6.77004 24.826 6.32687 24.6648 5.65555 24.4499C4.98422 24.235 4.58932 24.2977 4.36994 23.3619C4.14177 22.4351 4.36994 21.1098 4.36994 21.1098C5.82228 21.0426 7.22637 21.177 9.85463 21.9336C12.4829 22.6858 13.944 24.1365 13.944 24.1365C13.944 24.1365 13.6062 24.141 13.0007 24.2977ZM43.9738 23.3709C43.7456 24.2977 43.3595 24.244 42.6882 24.4589C42.0169 24.6738 41.5693 24.826 41.3455 24.7768C41.1174 24.7275 40.7313 24.4096 40.2969 24.4186C39.8581 24.4365 37.8178 24.7857 37.0631 24.7857C36.3084 24.7857 35.9442 24.4589 35.3431 24.3066C34.742 24.1544 34.4041 24.1544 34.4041 24.1544C34.4041 24.1544 35.8565 22.6993 38.4935 21.9515C41.1218 21.1993 42.5259 21.0605 43.9782 21.1277C43.9738 21.1098 44.202 22.4351 43.9738 23.3709Z" fill="#D0D1D2"/>
</svg>
