<svg width="49" height="48" viewBox="0 0 49 48" fill="none" xmlns="http://www.w3.org/2000/svg">
<path fill-rule="evenodd" clip-rule="evenodd" d="M39.6719 3.5L15.6719 9.5V17.5V35.4996C14.8362 34.8719 13.7975 34.5 12.6719 34.5C9.91045 34.5 7.67188 36.7386 7.67188 39.5C7.67188 42.2614 9.91045 44.5 12.6719 44.5C15.4333 44.5 17.6719 42.2614 17.6719 39.5V17L37.6719 12V30.4996C36.8362 29.8719 35.7975 29.5 34.6719 29.5C31.9105 29.5 29.6719 31.7386 29.6719 34.5C29.6719 37.2614 31.9105 39.5 34.6719 39.5C37.4333 39.5 39.6719 37.2614 39.6719 34.5V11.5V4.5V3.5Z" fill="white"/>
</svg>
