<svg width="49" height="48" viewBox="0 0 49 48" fill="none" xmlns="http://www.w3.org/2000/svg">
<path d="M43.5312 32.2654L34.781 28.5154C34.4072 28.356 33.9918 28.3225 33.5972 28.4197C33.2027 28.5169 32.8504 28.7397 32.5935 29.0544L28.7184 33.7889C22.6368 30.9215 17.7426 26.0272 14.8752 19.9457L19.6096 16.0706C19.925 15.8141 20.1482 15.4618 20.2455 15.0671C20.3428 14.6724 20.3088 14.2567 20.1487 13.8831L16.3986 5.13291C16.223 4.73009 15.9122 4.40121 15.52 4.20297C15.1278 4.00472 14.6787 3.94955 14.2502 4.04695L6.12503 5.92198C5.71187 6.01739 5.34325 6.25002 5.07933 6.5819C4.81541 6.91379 4.67178 7.32533 4.67188 7.74936C4.67188 27.7888 20.9144 44 40.9225 44C41.3467 44.0003 41.7584 43.8567 42.0905 43.5928C42.4225 43.3289 42.6552 42.9601 42.7507 42.5468L44.6257 34.4217C44.7225 33.9911 44.6661 33.5402 44.4664 33.1466C44.2666 32.7531 43.9359 32.4415 43.5312 32.2654Z" fill="#25CB55"/>
</svg>
