<svg width="49" height="48" viewBox="0 0 49 48" fill="none" xmlns="http://www.w3.org/2000/svg">
<path d="M39.0719 8H10.2719C9.3171 8 8.40142 8.37611 7.72629 9.04558C7.05116 9.71506 6.67188 10.6231 6.67188 11.5698V28.4302C6.67188 29.3769 7.05116 30.2849 7.72629 30.9544C8.40142 31.6239 9.3171 32 10.2719 32H12.0719V28.4302H10.2719V11.5698H39.0719V28.4302H37.2719V32H39.0719C40.0267 32 40.9423 31.6239 41.6175 30.9544C42.2926 30.2849 42.6719 29.3769 42.6719 28.4302V11.5698C42.6719 10.6231 42.2926 9.71506 41.6175 9.04558C40.9423 8.37611 40.0267 8 39.0719 8Z" fill="#D0D1D2"/>
<path d="M20.93 34.4212C20.93 37.3032 18.179 39.9232 17.917 40.1852C17.655 40.4472 17.262 40.5782 17 40.5782C16.607 40.5782 16.345 40.4472 15.952 40.0542C15.559 39.5302 15.559 38.7442 16.083 38.2202C16.738 37.6962 18.31 35.8622 18.31 34.4212C18.31 33.6352 17.786 32.8492 17.262 31.9322C16.476 30.8843 15.69 29.5743 15.69 28.0023C15.69 24.9893 17.393 23.8103 17.655 23.6793C18.179 23.4173 19.096 23.5483 19.358 24.0723C19.751 24.7273 19.62 25.5133 18.965 25.9063C18.965 25.9063 18.31 26.4303 18.31 28.0023C18.31 28.9193 18.834 29.7053 19.358 30.4913C20.144 31.5392 20.93 32.8492 20.93 34.4212ZM25.0742 28.0023C25.0742 26.4303 25.7292 25.9063 25.7292 25.9063C26.3842 25.5133 26.5152 24.7273 26.1222 24.0723C25.7292 23.4173 24.9432 23.2863 24.2882 23.6793C24.0262 23.8103 22.3232 24.9893 22.3232 28.0023C22.3232 29.5743 23.1092 30.8843 23.8952 31.9322C24.4192 32.8492 24.9432 33.6352 24.9432 34.4212C24.9432 35.8622 23.3712 37.6962 22.7162 38.2202C22.1922 38.7442 22.1922 39.5302 22.5852 40.0542C22.8472 40.3162 23.2402 40.4472 23.5022 40.4472C24.0262 40.5782 24.4192 40.4472 24.6812 40.1852C24.9432 39.9232 27.6942 37.3032 27.6942 34.4212C27.6942 32.8492 26.9082 31.5392 26.1222 30.4913C25.5982 29.5743 25.0742 28.7883 25.0742 28.0023ZM31.5762 28.1333C31.5762 26.5613 32.2312 26.0373 32.2312 26.0373C32.7551 25.6443 33.0171 24.8583 32.6241 24.2033C32.2312 23.6793 31.4452 23.4173 30.7902 23.8103C30.5282 23.9413 28.8252 25.1203 28.8252 28.1333C28.8252 29.7053 29.7422 31.0153 30.3972 32.0632C30.9212 32.9802 31.4452 33.7662 31.4452 34.5522C31.4452 35.9932 29.8732 37.8272 29.2182 38.3512C28.6942 38.8752 28.5632 39.6612 29.0872 40.1852C29.3492 40.4472 29.6112 40.5782 30.0042 40.5782C30.2662 40.5782 30.6592 40.4472 31.1832 40.3162C31.4452 40.0542 34.1961 37.4342 34.1961 34.5522C34.1961 32.9802 33.2791 31.6702 32.6241 30.6223C32.1002 29.7053 31.5762 28.9193 31.5762 28.1333Z" fill="#D0D1D2"/>
</svg>
