<svg width="49" height="48" viewBox="0 0 49 48" fill="none" xmlns="http://www.w3.org/2000/svg">
<path d="M12.0994 7H13.2627C13.5829 7 13.89 7.12703 14.1164 7.35316C14.9449 8.18059 15.059 9.48263 14.3871 10.4413L14.1779 10.7398C13.1014 12.2757 12.9797 14.2853 13.8631 15.9395L17.1138 22.0267C18.6063 24.8217 18.3135 28.2319 16.3663 30.7322L13.8863 33.9167C13.6565 34.2118 13.187 34.1105 13.0996 33.747L9.01487 16.7491C8.33231 13.9087 8.67523 10.9189 9.98324 8.30619C10.384 7.50567 11.2032 7 12.0994 7Z" fill="#D0D1D2"/>
<path d="M22.4639 31.973H30.2839C32.2568 31.973 33.8561 33.5702 33.8561 35.5405V36.4324C33.8561 38.4027 32.2568 40 30.2839 40H20.3708C18.7129 40 17.1228 39.3422 15.9505 38.1714L14.9547 37.1769C14.5645 36.7872 14.6181 36.1408 15.0671 35.8205L18.8304 33.1359C19.8906 32.3796 21.161 31.973 22.4639 31.973Z" fill="#D0D1D2"/>
<path d="M28.93 17.963C28.93 20.8449 26.179 23.4649 25.917 23.7269C25.655 23.9889 25.262 24.1199 25 24.1199C24.607 24.1199 24.345 23.9889 23.952 23.5959C23.559 23.0719 23.559 22.2859 24.083 21.7619C24.738 21.2379 26.31 19.404 26.31 17.963C26.31 17.177 25.786 16.391 25.262 15.474C24.476 14.426 23.69 13.116 23.69 11.544C23.69 8.53105 25.393 7.35206 25.655 7.22106C26.179 6.95906 27.096 7.09006 27.358 7.61406C27.751 8.26905 27.62 9.05505 26.965 9.44804C26.965 9.44804 26.31 9.97204 26.31 11.544C26.31 12.461 26.834 13.247 27.358 14.033C28.144 15.081 28.93 16.391 28.93 17.963ZM31.5499 11.544C31.5499 9.97204 32.2049 9.44804 32.2049 9.44804C32.8599 9.05505 32.9909 8.26905 32.5979 7.61406C32.2049 6.95906 31.4189 6.82806 30.7639 7.22106C30.502 7.35206 28.799 8.53105 28.799 11.544C28.799 13.116 29.585 14.426 30.371 15.474C30.8949 16.391 31.4189 17.177 31.4189 17.963C31.4189 19.404 29.847 21.2379 29.192 21.7619C28.668 22.2859 28.668 23.0719 29.061 23.5959C29.323 23.8579 29.716 23.9889 29.978 23.9889C30.502 24.1199 30.8949 23.9889 31.1569 23.7269C31.4189 23.4649 34.1699 20.8449 34.1699 17.963C34.1699 16.391 33.3839 15.081 32.5979 14.033C32.0739 13.116 31.5499 12.33 31.5499 11.544ZM37.0519 11.675C37.0519 10.103 37.7069 9.57904 37.7069 9.57904C38.2309 9.18604 38.4929 8.40005 38.0999 7.74506C37.7069 7.22106 36.9209 6.95906 36.2659 7.35206C36.0039 7.48306 34.3009 8.66205 34.3009 11.675C34.3009 13.247 35.2179 14.557 35.8729 15.605C36.3969 16.522 36.9209 17.308 36.9209 18.094C36.9209 19.535 35.3489 21.3689 34.6939 21.8929C34.1699 22.4169 34.0389 23.2029 34.5629 23.7269C34.8249 23.9889 35.0869 24.1199 35.4799 24.1199C35.7419 24.1199 36.1349 23.9889 36.6589 23.8579C36.9209 23.5959 39.6719 20.9759 39.6719 18.094C39.6719 16.522 38.7549 15.212 38.0999 14.164C37.5759 13.247 37.0519 12.461 37.0519 11.675Z" fill="#D0D1D2"/>
</svg>
