<svg width="49" height="48" viewBox="0 0 49 48" fill="none" xmlns="http://www.w3.org/2000/svg">
<path d="M13.6187 5H14.9583C15.327 5 15.6806 5.14628 15.9413 5.40667C16.8954 6.35946 17.0268 7.85878 16.2531 8.96267L16.0121 9.30647C14.7725 11.0751 14.6324 13.3891 15.6497 15.294L19.3928 22.3035C21.1115 25.5219 20.7743 29.4488 18.5321 32.328L15.6763 35.995C15.4117 36.3348 14.8711 36.2182 14.7705 35.7996L10.0668 16.2262C9.28086 12.9555 9.67573 9.51262 11.1819 6.5041C11.6434 5.58229 12.5868 5 13.6187 5Z" fill="white"/>
<path d="M25.5536 33.7568H34.5585C36.8303 33.7568 38.6719 35.596 38.6719 37.8649V38.8919C38.6719 41.1607 36.8303 43 34.5585 43H23.1434C21.2342 43 19.4033 42.2426 18.0533 40.8943L16.9067 39.7492C16.4574 39.3004 16.519 38.5561 17.0361 38.1872L21.3696 35.0959C22.5904 34.2249 24.0532 33.7568 25.5536 33.7568Z" fill="white"/>
</svg>
