<svg width="49" height="48" viewBox="0 0 49 48" fill="none" xmlns="http://www.w3.org/2000/svg">
<path fill-rule="evenodd" clip-rule="evenodd" d="M36.5025 21.7305C30.0555 17.902 19.4219 17.5498 13.2674 19.4176C12.2791 19.7177 11.234 19.1597 10.9345 18.1714C10.635 17.1826 11.1925 16.1381 12.1816 15.8377C19.2461 13.6933 30.9902 14.1073 38.4119 18.513C39.3009 19.0407 39.5927 20.1889 39.0656 21.0761C38.5382 21.9652 37.3895 22.2582 36.5025 21.7305ZM36.2913 27.4012C35.8393 28.135 34.8796 28.365 34.1467 27.9145C28.7719 24.6107 20.5763 23.6537 14.2174 25.584C13.3928 25.8331 12.5218 25.3681 12.2714 24.5451C12.0229 23.7205 12.4882 22.8512 13.3112 22.6004C20.5751 20.3962 29.6052 21.4637 35.7784 25.2574C36.5113 25.7088 36.7419 26.6688 36.2913 27.4012ZM33.8442 32.847C33.4847 33.4362 32.7173 33.6209 32.1301 33.2619C27.4338 30.3913 21.5221 29.7432 14.5604 31.3334C13.8896 31.4871 13.2208 31.0666 13.068 30.396C12.9143 29.7252 13.333 29.0565 14.0056 28.9033C21.624 27.1618 28.1591 27.9112 33.4305 31.1328C34.0183 31.4915 34.2035 32.2595 33.8442 32.847ZM24.6719 4C13.6263 4 4.67188 12.9542 4.67188 23.9997C4.67188 35.0464 13.6263 44 24.6719 44C35.7177 44 44.6719 35.0464 44.6719 23.9997C44.6719 12.9542 35.7177 4 24.6719 4Z" fill="#1ED760"/>
</svg>
