<svg width="49" height="48" viewBox="0 0 49 48" fill="none" xmlns="http://www.w3.org/2000/svg">
<path fill-rule="evenodd" clip-rule="evenodd" d="M14.0633 16.4852C11.9655 18.583 10.5369 21.2558 9.95814 24.1655C9.37937 27.0752 9.67641 30.0912 10.8117 32.8321C11.947 35.573 13.8696 37.9157 16.3364 39.5639C18.8031 41.2121 21.7032 42.0918 24.6699 42.0918C27.6366 42.0918 30.5367 41.2121 33.0035 39.5639C35.4702 37.9157 37.3928 35.573 38.5281 32.8321C39.6634 30.0912 39.9605 27.0752 39.3817 24.1655C38.8029 21.2558 37.3743 18.583 35.2765 16.4852C34.6907 15.8995 33.741 15.8995 33.1552 16.4852C32.5694 17.071 32.5694 18.0208 33.1552 18.6066C34.8334 20.2848 35.9763 22.423 36.4393 24.7508C36.4978 25.0448 36.5451 25.3402 36.5813 25.6364H33.7833C32.6092 25.6364 31.6246 25.2573 30.5032 24.8255C29.0198 24.2543 27.2968 23.5909 24.5787 23.5909C21.8607 23.5909 20.1377 24.2543 18.6542 24.8255C17.5328 25.2573 16.5483 25.6364 15.3742 25.6364H12.7585C12.7947 25.3402 12.842 25.0448 12.9005 24.7508C13.3635 22.423 14.5064 20.2848 16.1846 18.6066C16.7704 18.0208 16.7704 17.071 16.1846 16.4852C15.5989 15.8995 14.6491 15.8995 14.0633 16.4852ZM12.8319 29.0567C19.1081 29.3275 22.0751 34.4416 22.4839 38.891C20.8896 38.5957 19.3639 37.9787 18.0031 37.0695C16.0297 35.7509 14.4916 33.8768 13.5834 31.684C13.2318 30.8353 12.9807 29.9537 12.8319 29.0567ZM26.6706 38.9239C27.0717 34.4237 30.0916 29.2288 36.509 29.0502C36.3603 29.9494 36.1089 30.8333 35.7565 31.684C34.8482 33.8767 33.3101 35.7509 31.3368 37.0695C29.9233 38.0139 28.332 38.643 26.6706 38.9239Z" fill="#D0D1D2"/>
<path d="M22.2144 10.1723C22.2144 8.72888 22.8158 8.24776 22.8158 8.24776C23.4172 7.88691 23.5375 7.16522 23.1767 6.56382C22.8158 5.96241 22.0942 5.84213 21.4927 6.20298C21.2522 6.32326 19.6885 7.40579 19.6885 10.1723C19.6885 11.6156 20.4102 12.8184 21.1319 13.7807C21.613 14.6227 22.0942 15.3444 22.0942 16.066C22.0942 17.3891 20.6508 19.0731 20.0494 19.5542C19.5682 20.0353 19.5682 20.757 19.9291 21.2381C20.1697 21.4787 20.5305 21.599 20.7711 21.599C21.2522 21.7193 21.613 21.599 21.8536 21.3584C22.0942 21.1179 24.6201 18.7122 24.6201 16.066C24.6201 14.6227 23.8984 13.4199 23.1767 12.4576C22.6956 11.6156 22.2144 10.8939 22.2144 10.1723ZM28.2662 10.2925C28.2662 8.84916 28.8677 8.36804 28.8677 8.36804C29.3488 8.00719 29.5893 7.28551 29.2285 6.6841C28.8677 6.20297 28.146 5.96241 27.5446 6.32326C27.304 6.44354 25.7403 7.52607 25.7403 10.2925C25.7403 11.7359 26.5823 12.9387 27.1837 13.901C27.6648 14.7429 28.146 15.4646 28.146 16.1863C28.146 17.5094 26.7026 19.1934 26.1012 19.6745C25.6201 20.1556 25.4998 20.8773 25.9809 21.3584C26.2215 21.599 26.462 21.7193 26.8229 21.7193C27.0634 21.7193 27.4243 21.599 27.9054 21.4787C28.146 21.2381 30.6719 18.8325 30.6719 16.1863C30.6719 14.7429 29.8299 13.5401 29.2285 12.5779C28.7474 11.7359 28.2662 11.0142 28.2662 10.2925Z" fill="#D0D1D2"/>
</svg>
