<svg width="49" height="48" viewBox="0 0 49 48" fill="none" xmlns="http://www.w3.org/2000/svg">
<g clip-path="url(#clip0_27_6400)">
<rect x="5.67188" y="7" width="37" height="38" rx="2.09529" fill="#D9D9D9"/>
<rect x="5.67188" y="7" width="37" height="38" rx="2.09529" fill="url(#paint0_linear_27_6400)"/>
<path d="M27.7753 5.94613L26.4563 9.77831L29.2294 12.749C29.3748 12.904 29.4712 13.0986 29.5063 13.3083C29.5415 13.518 29.5139 13.7336 29.427 13.9281C29.3401 14.1226 29.1977 14.2874 29.0178 14.4019C28.8378 14.5165 28.6282 14.5756 28.4151 14.5719L24.3663 14.491L22.4185 18.0341C22.3152 18.2204 22.1591 18.3724 21.97 18.471C21.7808 18.5696 21.5669 18.6104 21.355 18.5884C21.1431 18.5664 20.9426 18.4825 20.7785 18.3472C20.6145 18.2119 20.4942 18.0313 20.4327 17.8278L19.2473 13.9451L15.2665 13.1681C15.0569 13.1286 14.8638 13.0281 14.7115 12.8793C14.5592 12.7305 14.4544 12.54 14.4103 12.3317C14.3662 12.1234 14.3847 11.9065 14.4636 11.7082C14.5425 11.51 14.6781 11.3392 14.8536 11.2173L18.1715 8.89997L17.6644 4.8738C17.6374 4.66274 17.6737 4.44824 17.7685 4.25731C17.8634 4.06637 18.0127 3.90755 18.1975 3.80083C18.3824 3.69411 18.5945 3.64426 18.8073 3.65757C19.0201 3.67088 19.224 3.74675 19.3933 3.87562L22.6306 6.3255L26.2953 4.61148C26.4886 4.52047 26.7043 4.48836 26.9154 4.51918C27.1265 4.55 27.3236 4.64238 27.482 4.78474C27.6404 4.92709 27.753 5.11309 27.8057 5.31939C27.8584 5.5257 27.8488 5.74314 27.7782 5.94444L27.7753 5.94613Z" fill="#FFDF00"/>
<path d="M43.6793 13.7829L36.6314 10.6676C36.2308 10.4905 35.7763 10.4798 35.3679 10.6379C34.9595 10.7959 34.6306 11.1097 34.4535 11.5103L31.3382 18.5582C31.1611 18.9588 31.1505 19.4132 31.3085 19.8217C31.4665 20.2301 31.7803 20.559 32.1809 20.7361L39.2288 23.8514C39.6294 24.0285 40.0839 24.0391 40.4923 23.8811C40.9007 23.7231 41.2296 23.4092 41.4067 23.0087L44.522 15.9608C44.6991 15.5602 44.7097 15.1057 44.5517 14.6973C44.3937 14.2889 44.0799 13.96 43.6793 13.7829Z" fill="url(#paint1_linear_27_6400)"/>
<circle cx="17.3303" cy="31.8845" r="10.7314" transform="rotate(30 17.3303 31.8845)" fill="url(#paint2_linear_27_6400)"/>
<path d="M24.0215 36.6667C26.7234 36.6667 29.0092 34.693 29.7691 31.9758C30.0666 30.9121 30.9332 30 32.0377 30H40.6719C41.7764 30 42.6719 30.8954 42.6719 32V43C42.6719 44.1046 41.7764 45 40.6719 45H7.67188C6.56731 45 5.67188 44.1046 5.67188 43V32C5.67188 30.8954 6.56731 30 7.67188 30H16.0052C17.1098 30 17.9764 30.9121 18.2738 31.9758C19.0337 34.693 21.3196 36.6667 24.0215 36.6667Z" fill="url(#paint3_linear_27_6400)"/>
</g>
<defs>
<linearGradient id="paint0_linear_27_6400" x1="49.2898" y1="-0.531533" x2="10.926" y2="35.5862" gradientUnits="userSpaceOnUse">
<stop stop-color="#D0D2D0"/>
<stop offset="1" stop-color="#757575"/>
</linearGradient>
<linearGradient id="paint1_linear_27_6400" x1="40.1553" y1="12.2252" x2="35.7049" y2="22.2937" gradientUnits="userSpaceOnUse">
<stop stop-color="#00FFC8"/>
<stop offset="1" stop-color="#00E9BF"/>
</linearGradient>
<linearGradient id="paint2_linear_27_6400" x1="17.3303" y1="21.1532" x2="17.3303" y2="42.6159" gradientUnits="userSpaceOnUse">
<stop stop-color="#FFA237"/>
<stop offset="1" stop-color="#FF7621"/>
</linearGradient>
<linearGradient id="paint3_linear_27_6400" x1="39.6637" y1="30" x2="31.8869" y2="50.2307" gradientUnits="userSpaceOnUse">
<stop stop-color="#D0D2D0"/>
<stop offset="1" stop-color="#757575"/>
</linearGradient>
<clipPath id="clip0_27_6400">
<rect width="48" height="48" fill="white" transform="translate(0.671875)"/>
</clipPath>
</defs>
</svg>
