<svg width="49" height="44" viewBox="0 0 49 44" fill="none" xmlns="http://www.w3.org/2000/svg">
<path fill-rule="evenodd" clip-rule="evenodd" d="M7.67188 27.7777H2.67188C1.56731 27.7777 0.671875 26.8822 0.671875 25.7777V18.2236C0.671875 17.1191 1.56731 16.2236 2.67188 16.2236H7.67196L15.3546 9.49897C16.6477 8.36712 18.6719 9.28541 18.6719 11.0039V32.9975C18.6719 34.716 16.6477 35.6343 15.3546 34.5025L7.67188 27.7777V27.7777Z" fill="#D0D1D2"/>
<path fill-rule="evenodd" clip-rule="evenodd" d="M22.8538 14.2957C23.1453 13.9608 23.684 13.9015 24.057 14.1634C26.8645 16.1346 28.6719 19.2071 28.6719 22.6583C28.6719 25.9164 27.0609 28.8375 24.5183 30.8124C24.1603 31.0905 23.619 31.0553 23.3093 30.7338C22.9997 30.4122 23.0389 29.9261 23.3969 29.648C25.5791 27.953 26.9576 25.4507 26.9576 22.6583C26.9576 19.7009 25.411 17.0682 23.0011 15.3763C22.6282 15.1144 22.5622 14.6306 22.8538 14.2957Z" fill="#D0D1D2"/>
<path fill-rule="evenodd" clip-rule="evenodd" d="M29.972 7.28576C30.3664 6.89922 30.9996 6.90564 31.3861 7.3001C35.2734 11.2671 37.6719 16.7029 37.6719 22.6969C37.6523 28.3544 35.4304 33.6695 31.9098 37.5407C31.537 37.9482 30.9045 37.9764 30.497 37.6037C30.0894 37.2309 30.0612 36.5984 30.434 36.1909C33.7453 32.5923 35.6915 27.9602 35.6719 22.6969C35.6719 17.2472 33.4935 12.3082 29.9576 8.6999C29.5711 8.30544 29.5775 7.6723 29.972 7.28576Z" fill="#D0D1D2"/>
<path fill-rule="evenodd" clip-rule="evenodd" d="M38.2642 1.25019C38.6784 0.884814 39.3103 0.924355 39.6757 1.3385C44.5963 6.93731 47.6526 14.4483 47.6713 22.5001C47.6545 30.1282 44.9109 37.2808 40.4451 42.7564C40.0952 43.1838 39.4652 43.2466 39.0378 42.8968C38.6105 42.5469 38.5476 41.9169 38.8975 41.4895C43.1816 36.276 45.688 29.7634 45.6713 22.5001C45.6899 14.8329 42.8965 7.99113 38.1759 2.66164C37.8105 2.24749 37.8501 1.61556 38.2642 1.25019Z" fill="url(#paint0_radial_48_8188)" fill-opacity="0.4"/>
<defs>
<radialGradient id="paint0_radial_48_8188" cx="0" cy="0" r="1" gradientUnits="userSpaceOnUse" gradientTransform="translate(47.6714 21.0001) rotate(180) scale(11 90.7025)">
<stop stop-color="white"/>
<stop offset="1" stop-color="white" stop-opacity="0"/>
</radialGradient>
</defs>
</svg>
