<svg width="49" height="48" viewBox="0 0 49 48" fill="none" xmlns="http://www.w3.org/2000/svg">
<g filter="url(#filter0_i_55_13147)">
<g filter="url(#filter1_i_55_13147)">
<rect x="3.67188" y="3" width="41" height="42" rx="7" fill="url(#paint0_linear_55_13147)"/>
</g>
</g>
<path d="M30.2274 29.2223C30.2274 29.5169 30.1102 29.7995 29.9019 30.0079C29.6936 30.2162 29.4115 30.3334 29.1163 30.3334H15.783C15.4878 30.3334 15.2057 30.2162 14.9974 30.0079C14.7891 29.7995 14.6719 29.5169 14.6719 29.2223V18.1112C14.6719 17.8166 14.7891 17.5339 14.9974 17.3256C15.2057 17.1172 15.4878 17.0001 15.783 17.0001H29.1163C29.2639 17.0001 29.4115 17.0296 29.546 17.0855C29.6762 17.1408 29.7977 17.222 29.9019 17.3256C30.1102 17.5339 30.2274 17.8166 30.2274 18.1112V29.2223Z" fill="white"/>
<path d="M30.783 21.4445V25.8889L34.6719 29.7778V17.5556L30.783 21.4445Z" fill="white"/>
<defs>
<filter id="filter0_i_55_13147" x="1.67188" y="3" width="43" height="42" filterUnits="userSpaceOnUse" color-interpolation-filters="sRGB">
<feFlood flood-opacity="0" result="BackgroundImageFix"/>
<feBlend mode="normal" in="SourceGraphic" in2="BackgroundImageFix" result="shape"/>
<feColorMatrix in="SourceAlpha" type="matrix" values="0 0 0 0 0 0 0 0 0 0 0 0 0 0 0 0 0 0 127 0" result="hardAlpha"/>
<feOffset dx="-2"/>
<feGaussianBlur stdDeviation="2.5"/>
<feComposite in2="hardAlpha" operator="arithmetic" k2="-1" k3="1"/>
<feColorMatrix type="matrix" values="0 0 0 0 0.941176 0 0 0 0 0.941176 0 0 0 0 0.941176 0 0 0 0.2 0"/>
<feBlend mode="normal" in2="shape" result="effect1_innerShadow_55_13147"/>
</filter>
<filter id="filter1_i_55_13147" x="3.67188" y="3" width="42" height="44" filterUnits="userSpaceOnUse" color-interpolation-filters="sRGB">
<feFlood flood-opacity="0" result="BackgroundImageFix"/>
<feBlend mode="normal" in="SourceGraphic" in2="BackgroundImageFix" result="shape"/>
<feColorMatrix in="SourceAlpha" type="matrix" values="0 0 0 0 0 0 0 0 0 0 0 0 0 0 0 0 0 0 127 0" result="hardAlpha"/>
<feMorphology radius="3" operator="erode" in="SourceAlpha" result="effect1_innerShadow_55_13147"/>
<feOffset dx="1" dy="2"/>
<feGaussianBlur stdDeviation="1.5"/>
<feComposite in2="hardAlpha" operator="arithmetic" k2="-1" k3="1"/>
<feColorMatrix type="matrix" values="0 0 0 0 0.691667 0 0 0 0 0.850728 0 0 0 0 1 0 0 0 0.1 0"/>
<feBlend mode="normal" in2="shape" result="effect1_innerShadow_55_13147"/>
</filter>
<linearGradient id="paint0_linear_55_13147" x1="28.1719" y1="48" x2="40.6719" y2="8.5" gradientUnits="userSpaceOnUse">
<stop stop-color="#0033FF"/>
<stop offset="1" stop-color="#0082FC"/>
</linearGradient>
</defs>
</svg>
