<svg width="21" height="27" viewBox="0 0 21 27" fill="none" xmlns="http://www.w3.org/2000/svg">
<path fill-rule="evenodd" clip-rule="evenodd" d="M12.6255 11.037C12.9553 10.2408 13.125 9.38743 13.125 8.52563C13.125 7.66383 12.9553 6.81047 12.6255 6.01427C12.3767 5.41376 12.0406 4.85463 11.629 4.35462L7.72412 8.25946L11.8615 12.3969C12.1686 11.9765 12.4253 11.5202 12.6255 11.037ZM10.4494 13.8132L6.30991 9.67367L2.39147 13.5921C3.56117 14.5551 5.03436 15.0881 6.5625 15.0881C7.4243 15.0881 8.27766 14.9184 9.07386 14.5886C9.56304 14.386 10.0248 14.1254 10.4494 13.8132ZM1.05737 12.0978C0.372506 11.0423 0 9.80316 0 8.52563C0 7.11877 0.45175 5.75848 1.27492 4.6387L4.89569 8.25946L1.05737 12.0978ZM2.69123 3.22658L6.3099 6.84525L10.1346 3.02052C9.7996 2.80312 9.44462 2.61625 9.07386 2.46268C8.27766 2.13288 7.4243 1.96313 6.5625 1.96313C5.16219 1.96313 3.80801 2.41069 2.69123 3.22658ZM11.8125 21.69L8.47875 18.435L2.625 24.3938L4.59375 26.3494L9.1875 21.7163L11.8125 21.69ZM19.6875 3.27563C19.6875 1.80563 18.48 0.650635 17.0625 0.650635C15.6056 0.650635 14.4375 1.85813 14.4375 3.27563C14.4375 4.74563 15.645 5.90063 17.0625 5.90063C18.5325 5.90063 19.6875 4.69313 19.6875 3.27563ZM9.96187 17.7131H13.6631L19.3069 23.3438L17.4431 25.2075L9.96187 17.7131ZM20.2256 22.425L14.595 16.7813L14.4375 16.6238V10.4944C14.4375 9.62414 14.7832 8.78954 15.3986 8.17419C16.0139 7.55884 16.8485 7.21313 17.7188 7.21313C18.589 7.21313 19.4236 7.55884 20.0389 8.17419C20.6543 8.78954 21 9.62414 21 10.4944V20.9944C21 21.6506 20.8162 22.2019 20.5144 22.7006L20.2256 22.425Z" fill="#FFBD0A" fill-opacity="0.9"/>
</svg>
