<svg width="48" height="48" viewBox="0 0 48 48" fill="none" xmlns="http://www.w3.org/2000/svg">
<path fill-rule="evenodd" clip-rule="evenodd" d="M24.2074 21.1055H34.1571C35.7269 21.1055 36.9995 22.3781 36.9995 23.9479V34.5056C36.9995 36.0754 35.7269 37.348 34.1571 37.348H19.5387C17.9689 37.348 16.6963 36.0754 16.6963 34.5056V23.9479C16.6963 22.3781 17.9689 21.1055 19.5387 21.1055H21.3649V17.0426C21.3649 14.6879 19.456 12.779 17.1012 12.779C14.7465 12.779 12.8376 14.6879 12.8376 17.0426V24.1484H9.99512V17.0426C9.99512 13.118 13.1766 9.93652 17.1012 9.93652C21.0258 9.93652 24.2074 13.118 24.2074 17.0426V21.1055Z" fill="#414141"/>
</svg>
