<svg width="49" height="48" viewBox="0 0 49 48" fill="none" xmlns="http://www.w3.org/2000/svg">
<path d="M18.2969 15.8125L11.9219 19.5625M18.2969 20.3125L11.9219 24.4375M18.2969 24.8125L11.9219 29.3125M18.2969 29.3125L12.2969 33.8125M26.9219 12.0625C30.4219 12.3125 37.4219 15.4375 37.4219 22.5625C37.4219 29.6875 30.4219 32.8125 26.9219 33.0625C24.2969 33.0625 23.1719 31.7875 23.1719 26.6875V18.4375C23.1719 13.3375 24.2969 12.0625 26.9219 12.0625Z" stroke="white" stroke-width="2.25" stroke-linecap="round"/>
<path d="M13.4219 12.8125C15.2969 16.1875 16.7969 15.0625 14.9219 21.8125C13.0469 28.5625 14.1719 28.5625 15.2969 28.9375C16.4219 29.3125 18.6719 34.1875 14.9219 36.4375" stroke="white" stroke-width="2.25" stroke-linecap="round"/>
</svg>
