<svg width="49" height="48" viewBox="0 0 49 48" fill="none" xmlns="http://www.w3.org/2000/svg">
<path d="M40.5766 22.9559C39.4986 21.0862 33.5694 11.704 23.4966 12.0072C14.1818 12.243 8.7917 20.4293 7.32625 22.9559C7.17842 23.2119 7.10059 23.5024 7.10059 23.7981C7.10059 24.0938 7.17842 24.3842 7.32625 24.6403C8.38744 26.4763 14.0639 35.589 23.9851 35.589H24.4062C33.721 35.3532 39.128 27.1669 40.5766 24.6403C40.7244 24.3842 40.8023 24.0938 40.8023 23.7981C40.8023 23.5024 40.7244 23.2119 40.5766 22.9559ZM24.322 32.2202C17.0622 32.3886 12.329 26.1731 10.8467 23.7981C12.5311 21.0862 16.9274 15.5445 23.6651 15.376C30.8912 15.1907 35.6413 21.4231 37.1404 23.7981C35.4054 26.51 31.0597 32.0517 24.322 32.2202Z" fill="white"/>
<path d="M23.9516 17.9027C22.7856 17.9027 21.6458 18.2485 20.6763 18.8963C19.7068 19.5441 18.9511 20.4648 18.5049 21.5421C18.0587 22.6193 17.942 23.8047 18.1694 24.9483C18.3969 26.0919 18.9584 27.1424 19.7829 27.9669C20.6074 28.7914 21.6579 29.3529 22.8015 29.5803C23.9451 29.8078 25.1304 29.6911 26.2077 29.2448C27.2849 28.7986 28.2057 28.043 28.8535 27.0735C29.5013 26.104 29.8471 24.9642 29.8471 23.7982C29.8471 22.2346 29.2259 20.7351 28.1203 19.6294C27.0147 18.5238 25.5152 17.9027 23.9516 17.9027ZM23.9516 26.3248C23.4519 26.3248 22.9634 26.1766 22.5479 25.899C22.1324 25.6213 21.8085 25.2267 21.6173 24.7651C21.4261 24.3034 21.376 23.7954 21.4735 23.3052C21.571 22.8151 21.8117 22.3649 22.165 22.0116C22.5184 21.6582 22.9686 21.4176 23.4587 21.3201C23.9488 21.2226 24.4568 21.2726 24.9185 21.4639C25.3802 21.6551 25.7748 21.9789 26.0524 22.3944C26.33 22.8099 26.4782 23.2984 26.4782 23.7982C26.4782 24.4683 26.212 25.1109 25.7382 25.5848C25.2644 26.0586 24.6217 26.3248 23.9516 26.3248Z" fill="white"/>
</svg>
