<svg width="49" height="48" viewBox="0 0 49 48" fill="none" xmlns="http://www.w3.org/2000/svg">
<path fill-rule="evenodd" clip-rule="evenodd" d="M31.8628 12.9059C32.9657 12.8448 33.8102 11.9013 33.7491 10.7984C33.688 9.69549 32.7444 8.85096 31.6415 8.91205C29.7468 9.01702 27.8771 9.79498 26.4292 11.2429C24.3354 13.3367 23.6448 16.3025 24.3576 18.9714L11.58 31.749C10.7989 32.53 10.7989 33.7964 11.58 34.5774L14.4084 37.4058C15.1895 38.1869 16.4558 38.1869 17.2368 37.4058L30.0144 24.6282C32.6834 25.341 35.6491 24.6504 37.7429 22.5566C39.1908 21.1087 39.9688 19.239 40.0738 17.3443C40.1349 16.2414 39.2903 15.2978 38.1875 15.2367C37.0846 15.1756 36.141 16.0202 36.0799 17.123C36.0273 18.0731 35.6398 19.0029 34.9145 19.7282C33.3524 21.2903 30.8197 21.2903 29.2576 19.7282C27.6956 18.1661 27.6956 15.6334 29.2576 14.0713C29.983 13.346 30.9127 12.9586 31.8628 12.9059Z" fill="white"/>
</svg>
