<svg width="49" height="48" viewBox="0 0 49 48" fill="none" xmlns="http://www.w3.org/2000/svg">
<path d="M39.6719 24L38.0052 24M24.6719 39L24.6719 37.3333M11.3385 24L9.67187 24M35.3385 34.6667L34.1719 33.5M14.0052 34.6667L15.1719 33.5" stroke="white" stroke-width="2.5" stroke-linecap="round" stroke-linejoin="round"/>
<path d="M29.672 17.3334C31.0713 18.3828 32.1048 19.8458 32.6263 21.5153C33.1478 23.1848 33.1308 24.976 32.5777 26.6353C32.0246 28.2945 30.9635 29.7377 29.5446 30.7604C28.1257 31.7831 26.4211 32.3334 24.672 32.3334C22.923 32.3334 21.2183 31.7831 19.7995 30.7604C18.3806 29.7377 17.3194 28.2945 16.7663 26.6353C16.2133 24.976 16.1963 23.1848 16.7178 21.5153C17.2393 19.8458 18.2728 18.3828 19.672 17.3334C20.3228 16.6892 20.8127 15.901 21.1023 15.0323C21.3918 14.1637 21.4728 13.2391 21.3387 12.3334C21.3387 11.4493 21.6899 10.6015 22.315 9.97635C22.9401 9.35123 23.788 9.00004 24.672 9.00004C25.5561 9.00004 26.4039 9.35123 27.0291 9.97635C27.6542 10.6015 28.0054 11.4493 28.0054 12.3334C27.8713 13.2391 27.9523 14.1637 28.2418 15.0323C28.5314 15.901 29.0213 16.6892 29.672 17.3334" stroke="white" stroke-width="2.5" stroke-linecap="round" stroke-linejoin="round"/>
<path d="M29.672 17.3334C31.0713 18.3828 32.1048 19.8458 32.6263 21.5153C33.1478 23.1848 33.1308 24.976 32.5777 26.6353C32.0246 28.2945 30.9635 29.7377 29.5446 30.7604C28.1257 31.7831 26.4211 32.3334 24.672 32.3334C22.923 32.3334 21.2183 31.7831 19.7995 30.7604C18.3806 29.7377 17.3194 28.2945 16.7663 26.6353C16.2133 24.976 16.1963 23.1848 16.7178 21.5153C17.2393 19.8458 18.2728 18.3828 19.672 17.3334C20.3228 16.6892 20.8127 15.901 21.1023 15.0323C21.3918 14.1637 21.4728 13.2391 21.3387 12.3334C21.3387 11.4493 21.6899 10.6015 22.315 9.97635C22.9401 9.35123 23.788 9.00004 24.672 9.00004C25.5561 9.00004 26.4039 9.35123 27.0291 9.97635C27.6542 10.6015 28.0054 11.4493 28.0054 12.3334C27.8713 13.2391 27.9523 14.1637 28.2418 15.0323C28.5314 15.901 29.0213 16.6892 29.672 17.3334" stroke="white" stroke-width="2.5" stroke-linecap="round" stroke-linejoin="round"/>
<path d="M28.5049 15.6666L20.8382 15.6666" stroke="white" stroke-width="2.5" stroke-linecap="round" stroke-linejoin="round"/>
<path d="M28.5049 15.6666L20.8382 15.6666" stroke="white" stroke-width="2.5" stroke-linecap="round" stroke-linejoin="round"/>
</svg>
