<svg width="49" height="48" viewBox="0 0 49 48" fill="none" xmlns="http://www.w3.org/2000/svg">
<path d="M15.875 21.6767C15.9182 21.1376 16.163 20.6346 16.5604 20.2679C16.9579 19.9011 17.4789 19.6975 18.0197 19.6976H30.9891C31.5299 19.6975 32.0509 19.9011 32.4484 20.2679C32.8458 20.6346 33.0905 21.1376 33.1338 21.6767L33.9975 32.4326C34.0213 32.7286 33.9835 33.0263 33.8865 33.3069C33.7896 33.5876 33.6356 33.8452 33.4342 34.0634C33.2329 34.2817 32.9885 34.4558 32.7165 34.575C32.4445 34.6942 32.1508 34.7557 31.8539 34.7558H17.1549C16.858 34.7557 16.5643 34.6942 16.2923 34.575C16.0203 34.4558 15.7759 34.2817 15.5746 34.0634C15.3732 33.8452 15.2192 33.5876 15.1223 33.3069C15.0253 33.0263 14.9875 32.7286 15.0113 32.4326L15.875 21.6767Z" stroke="white" stroke-width="2.15117" stroke-linecap="round" stroke-linejoin="round"/>
<path d="M28.8068 22.9244V17.5465C28.8068 16.4054 28.3535 15.3111 27.5467 14.5043C26.7399 13.6974 25.6455 13.2441 24.5045 13.2441C23.3634 13.2441 22.2691 13.6974 21.4623 14.5043C20.6554 15.3111 20.2021 16.4054 20.2021 17.5465V22.9244" stroke="white" stroke-width="2.15117" stroke-linecap="round" stroke-linejoin="round"/>
</svg>
