<svg width="49" height="48" viewBox="0 0 49 48" fill="none" xmlns="http://www.w3.org/2000/svg">
<path fill-rule="evenodd" clip-rule="evenodd" d="M35.6719 24C35.6719 30.0751 30.747 35 24.6719 35C18.5967 35 13.6719 30.0751 13.6719 24C13.6719 17.9249 18.5967 13 24.6719 13C30.747 13 35.6719 17.9249 35.6719 24ZM39.6719 24C39.6719 32.2843 32.9561 39 24.6719 39C16.3876 39 9.67188 32.2843 9.67188 24C9.67188 15.7157 16.3876 9 24.6719 9C32.9561 9 39.6719 15.7157 39.6719 24ZM23.1719 16C23.1719 15.4477 23.6196 15 24.1719 15H25.1719C25.7242 15 26.1719 15.4477 26.1719 16V27C26.1719 27.5523 25.7242 28 25.1719 28H24.1719C23.6196 28 23.1719 27.5523 23.1719 27V16ZM23.1719 31C23.1719 30.4477 23.6196 30 24.1719 30H25.1719C25.7242 30 26.1719 30.4477 26.1719 31V32C26.1719 32.5523 25.7242 33 25.1719 33H24.1719C23.6196 33 23.1719 32.5523 23.1719 32V31Z" fill="white"/>
</svg>
