<svg width="49" height="48" viewBox="0 0 49 48" fill="none" xmlns="http://www.w3.org/2000/svg">
<path fill-rule="evenodd" clip-rule="evenodd" d="M38.7154 37H37.9762C36.7516 37 35.7588 36.0124 35.7588 34.7941H13.5849C13.5849 36.0124 12.5922 37 11.3675 37H10.6284C9.40377 37 8.41101 36.0124 8.41101 34.7941V24.8568C8.41101 23.6868 8.87824 22.5646 9.70992 21.7372L10.6284 20.8235H9.13019C8.32478 20.8235 7.67188 20.174 7.67188 19.3728C7.67188 18.929 7.97549 18.5421 8.40829 18.4345L9.71 18.1108C10.1765 17.9947 10.6284 18.3457 10.6284 18.8241V20.0882H11.3675L12.6937 15.251C13.2199 13.3316 14.9723 12 16.9722 12H32.3716C34.3714 12 36.1239 13.3316 36.6501 15.251L37.9762 20.0882H38.7154V18.8241C38.7154 18.3457 39.1672 17.9947 39.6337 18.1108L40.9355 18.4345C41.3683 18.5421 41.6719 18.929 41.6719 19.3728C41.6719 20.174 41.019 20.8235 40.2136 20.8235H38.7154L39.6338 21.7372C40.4655 22.5646 40.9327 23.6868 40.9327 24.8568V34.7941C40.9327 36.0124 39.94 37 38.7154 37ZM12.192 19.8048L13.3757 15.8793C13.9385 14.0132 15.6651 12.7353 17.6235 12.7353H31.7923C33.7507 12.7353 35.4773 14.0132 36.0401 15.8793L37.2238 19.8048C37.2715 19.9627 37.1843 20.1297 37.0271 20.1818C35.7454 20.6068 34.4031 20.8235 33.052 20.8235H16.3638C15.0127 20.8235 13.6704 20.6068 12.3887 20.1818C12.2315 20.1297 12.1443 19.9627 12.192 19.8048ZM33.046 24.7209C34.964 23.9293 36.0004 22.9999 37.2343 21.7952C37.5585 21.4787 38.0895 21.5236 38.3535 21.8913L39.0373 22.8436C39.4188 23.375 39.3582 24.1029 38.8941 24.5646C38.2203 25.2349 37.3296 25.6459 36.38 25.7246L34.3483 25.893C33.773 25.9407 33.217 25.6737 32.8968 25.1958C32.784 25.0275 32.8582 24.7984 33.046 24.7209ZM16.1719 24.721C14.2539 23.9294 13.2176 23 11.9837 21.7953C11.6595 21.4788 11.1285 21.5237 10.8644 21.8914L10.1807 22.8437C9.79913 23.3751 9.85968 24.103 10.3238 24.5647C10.9976 25.235 11.8883 25.646 12.8379 25.7247L14.8696 25.8931C15.4449 25.9408 16.0009 25.6738 16.3211 25.1959C16.4339 25.0276 16.3598 24.7985 16.1719 24.721ZM16.3247 32.0683C16.4633 31.9304 16.6513 31.8529 16.8473 31.8529H32.4959C32.6919 31.8529 32.8799 31.9304 33.0185 32.0683L33.6494 32.6959C33.8822 32.9275 33.7173 33.3235 33.3881 33.3235H15.9551C15.6259 33.3235 15.461 32.9275 15.6938 32.6959L16.3247 32.0683Z" fill="white"/>
</svg>
