<svg width="49" height="48" viewBox="0 0 49 48" fill="none" xmlns="http://www.w3.org/2000/svg">
<path fill-rule="evenodd" clip-rule="evenodd" d="M19.6719 22H29.6719V18C29.6719 15.2386 27.4333 13 24.6719 13C21.9105 13 19.6719 15.2386 19.6719 18V22ZM32.6719 22C33.7764 22 34.6719 22.8954 34.6719 24V36C34.6719 37.1046 33.7764 38 32.6719 38H16.6719C15.5673 38 14.6719 37.1046 14.6719 36V24C14.6719 22.8954 15.5673 22 16.6719 22V18C16.6719 13.5817 20.2536 10 24.6719 10C29.0902 10 32.6719 13.5817 32.6719 18V22Z" fill="white"/>
</svg>
