<svg width="49" height="48" viewBox="0 0 49 48" fill="none" xmlns="http://www.w3.org/2000/svg">
<path d="M23.8624 10.6463L23.9331 10.5671L24.0307 10.4809L24.1056 10.4285L24.2174 10.3663L24.3256 10.3232L24.4366 10.2928L24.5476 10.2765L24.6586 10.2716L24.7371 10.2765L24.8771 10.3006L24.9817 10.3317C25.0857 10.3691 25.1819 10.4229 25.2688 10.4915L25.3473 10.5629C25.4004 10.6159 25.447 10.6739 25.4859 10.7354L25.5481 10.8472L33.7117 28.2483C33.8147 28.5265 33.8358 28.8284 33.7724 29.1182C33.709 29.408 33.5637 29.6735 33.3539 29.8832C33.1656 30.0727 32.9314 30.2102 32.6741 30.2823C32.4169 30.3544 32.1453 30.3587 31.8859 30.2947L31.7502 30.2509L24.6409 27.8821L17.5656 30.2396C17.3113 30.3343 17.0366 30.3605 16.7689 30.3157C16.5012 30.2709 16.25 30.1566 16.0404 29.9843L15.9308 29.8832C15.5348 29.4872 15.3856 28.9123 15.5567 28.3198L15.6062 28.1713L23.7457 10.8309L23.7995 10.7347L23.8624 10.6463Z" fill="white"/>
</svg>
