<svg width="49" height="48" viewBox="0 0 49 48" fill="none" xmlns="http://www.w3.org/2000/svg">
<path d="M23.1641 33.3582C25.7971 33.3576 28.3542 32.4762 30.4283 30.8543L35.9006 36.3263C36.4798 36.9055 37.4189 36.9055 37.9981 36.3263C38.5773 35.7471 38.5773 34.808 37.9981 34.2288L32.5258 28.7569C34.1487 26.6827 35.0307 24.1251 35.0313 21.4916C35.0313 14.9486 29.7074 9.625 23.1641 9.625C16.6208 9.625 11.2969 14.9486 11.2969 21.4916C11.2969 28.0345 16.6208 33.3582 23.1641 33.3582ZM23.1641 12.5916C28.0727 12.5916 32.0645 16.5833 32.0645 21.4916C32.0645 26.3999 28.0727 30.3915 23.1641 30.3915C18.2555 30.3915 14.2637 26.3999 14.2637 21.4916C14.2637 16.5833 18.2555 12.5916 23.1641 12.5916Z" fill="white"/>
</svg>
