<svg width="49" height="48" viewBox="0 0 49 48" fill="none" xmlns="http://www.w3.org/2000/svg">
<path fill-rule="evenodd" clip-rule="evenodd" d="M39.6719 24C39.6719 32.2843 32.9561 39 24.6719 39C16.3876 39 9.67188 32.2843 9.67188 24C9.67188 15.7157 16.3876 9 24.6719 9C32.9561 9 39.6719 15.7157 39.6719 24ZM12.569 26.0466C19.1885 26.1372 22.2533 31.5185 22.5942 36.0976C17.4706 35.2239 13.4298 31.1745 12.569 26.0466ZM12.4741 22.6364H15.4673C16.6414 22.6364 17.626 22.2573 18.7474 21.8255C20.2308 21.2543 21.9538 20.5909 24.6719 20.5909C27.3899 20.5909 29.1129 21.2543 30.5964 21.8255C31.7178 22.2573 32.7023 22.6364 33.8764 22.6364H36.8697C36.1914 16.5001 30.989 11.7273 24.6719 11.7273C18.3548 11.7273 13.1524 16.5001 12.4741 22.6364ZM26.7495 36.0976C27.0905 31.5185 30.1553 26.1372 36.7747 26.0466C35.9139 31.1745 31.8731 35.2239 26.7495 36.0976Z" fill="white"/>
</svg>
