<svg width="49" height="48" viewBox="0 0 49 48" fill="none" xmlns="http://www.w3.org/2000/svg">
<path fill-rule="evenodd" clip-rule="evenodd" d="M36.4219 16.728C37.4546 16.254 38.1719 15.2107 38.1719 14C38.1719 12.3431 36.8287 11 35.1719 11C33.515 11 32.1719 12.3431 32.1719 14C32.1719 15.2107 32.8891 16.254 33.9219 16.728V28.429C33.9219 29.4235 33.5268 30.3774 32.8235 31.0806C31.3591 32.5451 28.9847 32.5451 27.5202 31.0806C26.817 30.3774 26.4219 29.4235 26.4219 28.429V18.864C26.4219 17.339 25.8161 15.8765 24.7377 14.7982C22.4922 12.5526 18.8515 12.5526 16.606 14.7982C15.5277 15.8765 14.9219 17.339 14.9219 18.864V27.1575C12.7653 27.7126 11.1719 29.6702 11.1719 32C11.1719 34.7614 13.4105 37 16.1719 37C18.9333 37 21.1719 34.7614 21.1719 32C21.1719 29.6702 19.5784 27.7126 17.4219 27.1575V18.864C17.4219 18.0021 17.7643 17.1754 18.3738 16.5659C19.643 15.2967 21.7008 15.2967 22.97 16.5659C23.5795 17.1754 23.9219 18.0021 23.9219 18.864V28.429C23.9219 30.0866 24.5804 31.6763 25.7525 32.8484C28.1932 35.2892 32.1505 35.2892 34.5913 32.8484C35.7634 31.6763 36.4219 30.0866 36.4219 28.429V16.728ZM36.4219 16.728V16H33.9219V16.728C34.3024 16.9026 34.7258 17 35.1719 17C35.618 17 36.0413 16.9026 36.4219 16.728ZM35.6719 14C35.6719 14.2761 35.448 14.5 35.1719 14.5C34.8957 14.5 34.6719 14.2761 34.6719 14C34.6719 13.7239 34.8957 13.5 35.1719 13.5C35.448 13.5 35.6719 13.7239 35.6719 14ZM18.6719 32C18.6719 33.3807 17.5526 34.5 16.1719 34.5C14.7912 34.5 13.6719 33.3807 13.6719 32C13.6719 30.6193 14.7912 29.5 16.1719 29.5C17.5526 29.5 18.6719 30.6193 18.6719 32Z" fill="white"/>
<path d="M35.6719 14C35.6719 14.2761 35.448 14.5 35.1719 14.5C34.8957 14.5 34.6719 14.2761 34.6719 14C34.6719 13.7239 34.8957 13.5 35.1719 13.5C35.448 13.5 35.6719 13.7239 35.6719 14Z" fill="white"/>
<path d="M36.4219 16H33.9219V16.728C34.3024 16.9026 34.7258 17 35.1719 17C35.618 17 36.0413 16.9026 36.4219 16.728V16Z" fill="white"/>
</svg>
