<svg width="49" height="48" viewBox="0 0 49 48" fill="none" xmlns="http://www.w3.org/2000/svg">
<path fill-rule="evenodd" clip-rule="evenodd" d="M18.6719 16H30.6719C34.5379 16 37.6719 19.134 37.6719 23V25C37.6719 28.866 34.5379 32 30.6719 32H18.6719C14.8059 32 11.6719 28.866 11.6719 25V23C11.6719 19.134 14.8059 16 18.6719 16ZM8.67188 23C8.67188 17.4772 13.149 13 18.6719 13H30.6719C36.1947 13 40.6719 17.4772 40.6719 23V25C40.6719 30.5228 36.1947 35 30.6719 35H18.6719C13.149 35 8.67188 30.5228 8.67188 25V23ZM25.6719 19C22.9105 19 20.6719 21.2386 20.6719 24C20.6719 26.7614 22.9105 29 25.6719 29H28.6719C31.4333 29 33.6719 26.7614 33.6719 24C33.6719 21.2386 31.4333 19 28.6719 19H25.6719Z" fill="white"/>
</svg>
