<svg width="51" height="48" viewBox="0 0 51 48" fill="none" xmlns="http://www.w3.org/2000/svg">
<path fill-rule="evenodd" clip-rule="evenodd" d="M24.002 21.8572H31.0026C32.1072 21.8572 33.0026 22.7526 33.0026 23.8572V31.2858C33.0026 32.3904 32.1072 33.2858 31.0026 33.2858H20.7168C19.6122 33.2858 18.7168 32.3904 18.7168 31.2858V23.8572C18.7168 22.7526 19.6122 21.8572 20.7168 21.8572H22.002V19C22.002 17.3432 20.6589 16 19.002 16C17.3451 16 16.002 17.3432 16.002 19V24.0002H14.002V19C14.002 16.2386 16.2405 14 19.002 14C21.7634 14 24.002 16.2386 24.002 19V21.8572Z" fill="#FAFAFA"/>
</svg>
