<svg width="56" height="55" viewBox="0 0 56 55" fill="none" xmlns="http://www.w3.org/2000/svg">
<path d="M22.3125 12.526C22.3125 9.28992 24.9358 6.66663 28.1719 6.66663C31.408 6.66663 34.0313 9.28992 34.0313 12.526C34.0313 15.762 31.408 18.3854 28.1719 18.3854C24.9358 18.3854 22.3125 15.762 22.3125 12.526ZM43.0341 12.6377C42.0172 11.6207 40.3683 11.6207 39.3513 12.6377L32.3015 19.6875L24.0421 19.6875L16.9924 12.6377C15.9755 11.6207 14.3266 11.6207 13.3096 12.6377C12.2926 13.6548 12.2926 15.3036 13.3096 16.3206L21.0104 24.0213L21.0104 45.7292C21.0104 47.1674 22.1763 48.3333 23.6146 48.3333H24.9167C26.3549 48.3333 27.5208 47.1674 27.5208 45.7292V36.6146H28.8229L28.8229 45.7292C28.8229 47.1674 29.9889 48.3333 31.4271 48.3333H32.7292C34.1674 48.3333 35.3333 47.1674 35.3333 45.7292L35.3333 24.0213L43.0341 16.3205C44.0511 15.3035 44.0511 13.6548 43.0341 12.6377V12.6377Z" stroke="#757575" stroke-width="3.125"/>
</svg>
