<svg width="56" height="55" viewBox="0 0 56 55" fill="none" xmlns="http://www.w3.org/2000/svg">
<path fill-rule="evenodd" clip-rule="evenodd" d="M31.5787 15C30.4166 15 29.4746 15.9421 29.4746 17.1042L29.4746 38.1458C29.4746 39.3079 30.4166 40.25 31.5787 40.25C32.7408 40.25 33.6829 39.3079 33.6829 38.1458V17.1042C33.6829 15.9421 32.7408 15 31.5787 15ZM29.474 25.5207H25.2656L23.1308 21.2511C22.2316 19.4527 20.1859 18.5416 18.2477 19.0763L13.0492 20.5103C8.82695 21.6751 5.41796 24.7915 3.88006 28.8926L3.56684 29.7278C3.30566 30.4243 3.17188 31.1621 3.17188 31.906C3.17188 34.19 5.02342 36.0415 7.30742 36.0415H18.9531C21.4321 36.0415 24.2135 33.8589 24.2135 31.8332H26.3177V32.3592C26.3177 32.6497 26.5532 32.8853 26.8437 32.8853H29.474L29.474 25.5207Z" fill="#757575"/>
<path d="M40.3119 11.3175V23.5068C40.3119 23.8149 40.5618 24.0648 40.87 24.0648H43.4741C43.7823 24.0648 44.0322 23.8149 44.0322 23.5068V11.3175L47.5629 11.3175C47.9508 11.3175 48.2686 11.1346 48.2058 10.8697C48.1076 10.4556 47.3921 9.84108 46.9632 9.41221L42.9612 5.41021C42.7433 5.19228 42.4577 4.87159 42.1721 4.87158C41.8864 4.87158 41.6008 5.19227 41.3829 5.41021L37.3809 9.41221C36.9517 9.84138 36.2548 10.4565 36.1572 10.8707C36.0949 11.135 36.3938 11.3175 36.7812 11.3175H40.3119Z" fill="#757575"/>
<path d="M40.3119 42.6189V30.4296C40.3119 30.1215 40.5618 29.8716 40.87 29.8716H43.4741C43.7823 29.8716 44.0322 30.1215 44.0322 30.4296V42.6189H47.5629C47.9508 42.6189 48.2686 42.8018 48.2058 43.0667C48.1076 43.4808 47.3921 44.0953 46.9632 44.5242L42.9612 48.5262C42.7433 48.7441 42.4577 49.0648 42.1721 49.0648C41.8864 49.0648 41.6008 48.7441 41.3829 48.5262L37.3809 44.5242C36.9517 44.095 36.2548 43.4799 36.1572 43.0657C36.0949 42.8014 36.3938 42.6189 36.7812 42.6189H40.3119Z" fill="#757575"/>
</svg>
