<svg width="56" height="55" viewBox="0 0 56 55" fill="none" xmlns="http://www.w3.org/2000/svg">
<ellipse cx="40.6714" cy="19.5" rx="5.5" ry="5.5" fill="#B74134"/>
<path fill-rule="evenodd" clip-rule="evenodd" d="M23.1719 32.5C25.9333 32.5 28.1719 30.2614 28.1719 27.5C28.1719 24.7386 25.9333 22.5 23.1719 22.5C20.4105 22.5 18.1719 24.7386 18.1719 27.5C18.1719 30.2614 20.4105 32.5 23.1719 32.5ZM23.1719 34.5C27.0379 34.5 30.1719 31.366 30.1719 27.5C30.1719 23.634 27.0379 20.5 23.1719 20.5C19.3059 20.5 16.1719 23.634 16.1719 27.5C16.1719 31.366 19.3059 34.5 23.1719 34.5Z" fill="#757575"/>
<path fill-rule="evenodd" clip-rule="evenodd" d="M16.1719 17.5C15.0673 17.5 14.1719 18.3954 14.1719 19.5L14.1719 35.5C14.1719 36.6046 15.0673 37.5 16.1719 37.5H40.1719C41.2764 37.5 42.1719 36.6045 42.1719 35.4998V27.5C42.1719 26.9477 42.6196 26.5 43.1719 26.5C43.7242 26.5 44.1719 26.9477 44.1719 27.5V35.4998C44.1719 37.7088 42.3811 39.5 40.1719 39.5H16.1719C13.9627 39.5 12.1719 37.7091 12.1719 35.5L12.1719 19.5C12.1719 17.2909 13.9627 15.5 16.1719 15.5L33.0482 15.5C33.6005 15.5 34.0482 15.9477 34.0482 16.5C34.0482 17.0523 33.6005 17.5 33.0482 17.5L16.1719 17.5Z" fill="#757575"/>
</svg>
