<svg width="56" height="55" viewBox="0 0 56 55" fill="none" xmlns="http://www.w3.org/2000/svg">
<path fill-rule="evenodd" clip-rule="evenodd" d="M28.1719 34.5C32.0379 34.5 35.1719 31.366 35.1719 27.5C35.1719 23.634 32.0379 20.5 28.1719 20.5C24.3059 20.5 21.1719 23.634 21.1719 27.5C21.1719 31.366 24.3059 34.5 28.1719 34.5ZM28.1719 36.5C33.1424 36.5 37.1719 32.4706 37.1719 27.5C37.1719 22.5294 33.1424 18.5 28.1719 18.5C23.2013 18.5 19.1719 22.5294 19.1719 27.5C19.1719 32.4706 23.2013 36.5 28.1719 36.5Z" fill="#757575"/>
<path fill-rule="evenodd" clip-rule="evenodd" d="M28.1719 40C35.0754 40 40.6719 34.4036 40.6719 27.5C40.6719 20.5964 35.0754 15 28.1719 15C21.2683 15 15.6719 20.5964 15.6719 27.5C15.6719 34.4036 21.2683 40 28.1719 40ZM28.1719 42.5C36.4561 42.5 43.1719 35.7843 43.1719 27.5C43.1719 19.2157 36.4561 12.5 28.1719 12.5C19.8876 12.5 13.1719 19.2157 13.1719 27.5C13.1719 35.7843 19.8876 42.5 28.1719 42.5Z" fill="#757575"/>
</svg>
