<svg width="56" height="55" viewBox="0 0 56 55" fill="none" xmlns="http://www.w3.org/2000/svg">
<path fill-rule="evenodd" clip-rule="evenodd" d="M3.17188 30.3438C3.17188 38.2656 9.59379 44.6875 17.5156 44.6875C25.4375 44.6875 31.8594 38.2656 31.8594 30.3438C31.8594 22.4219 25.4375 16 17.5156 16C9.59379 16 3.17188 22.4219 3.17188 30.3438ZM29.089 32.3008C22.7591 32.3874 19.8284 37.5333 19.5024 41.9121C24.4018 41.0766 28.2658 37.2044 29.089 32.3008ZM29.1798 29.0398H26.3175C25.1947 29.0398 24.2533 28.6773 23.1809 28.2644C21.7624 27.7182 20.1148 27.0838 17.5156 27.0838C14.9165 27.0838 13.2689 27.7182 11.8503 28.2644C10.778 28.6773 9.83651 29.0398 8.71378 29.0398H5.85146C6.50011 23.1719 11.4749 18.608 17.5156 18.608C23.5564 18.608 28.5311 23.1719 29.1798 29.0398ZM15.5289 41.9121C15.2028 37.5333 12.2721 32.3874 5.94228 32.3008C6.76543 37.2044 10.6295 41.0766 15.5289 41.9121Z" fill="#757575"/>
<path d="M40.3119 11.3175V23.5068C40.3119 23.8149 40.5618 24.0648 40.87 24.0648H43.4741C43.7823 24.0648 44.0322 23.8149 44.0322 23.5068V11.3175L47.5629 11.3175C47.9508 11.3175 48.2686 11.1346 48.2058 10.8697C48.1076 10.4556 47.3921 9.84108 46.9632 9.41221L42.9612 5.41021C42.7433 5.19228 42.4577 4.87159 42.1721 4.87158C41.8864 4.87158 41.6008 5.19227 41.3829 5.41021L37.3809 9.41221C36.9517 9.84138 36.2548 10.4565 36.1572 10.8707C36.0949 11.135 36.3938 11.3175 36.7812 11.3175H40.3119Z" fill="#757575"/>
<path d="M40.3119 42.6189V30.4296C40.3119 30.1215 40.5618 29.8716 40.87 29.8716H43.4741C43.7823 29.8716 44.0322 30.1215 44.0322 30.4296V42.6189H47.5629C47.9508 42.6189 48.2686 42.8018 48.2058 43.0667C48.1076 43.4808 47.3921 44.0953 46.9632 44.5242L42.9612 48.5262C42.7433 48.7441 42.4577 49.0648 42.1721 49.0648C41.8864 49.0648 41.6008 48.7441 41.3829 48.5262L37.3809 44.5242C36.9517 44.095 36.2548 43.4799 36.1572 43.0657C36.0949 42.8014 36.3938 42.6189 36.7812 42.6189H40.3119Z" fill="#757575"/>
</svg>
