<svg width="55" height="54" viewBox="0 0 55 54" fill="none" xmlns="http://www.w3.org/2000/svg">
<path d="M20.1719 17L11.6719 22M20.1719 23L11.6719 28.5M20.1719 29L11.6719 35M20.1719 35L12.1719 41M31.6719 12C36.3385 12.3333 45.6719 16.5 45.6719 26C45.6719 35.5 36.3385 39.6667 31.6719 40C28.1719 40 26.6719 38.3 26.6719 31.5V20.5C26.6719 13.7 28.1719 12 31.6719 12Z" stroke="#25CB55" stroke-width="3" stroke-linecap="round"/>
<path d="M14.1719 13C16.6719 17.5 18.6719 16 16.1719 25C13.6719 34 15.1719 34 16.6719 34.5C18.1719 35 21.1719 41.5 16.1719 44.5" stroke="#25CB55" stroke-width="3" stroke-linecap="round"/>
</svg>
