<svg width="49" height="48" viewBox="0 0 49 48" fill="none" xmlns="http://www.w3.org/2000/svg">
<path fill-rule="evenodd" clip-rule="evenodd" d="M40.9219 24.25C41.6122 24.25 42.1719 23.6904 42.1719 23C42.1719 22.3096 41.6122 21.75 40.9219 21.75L35.9219 21.75C35.2315 21.75 34.6719 22.3096 34.6719 23C34.6719 23.6904 35.2315 24.25 35.9219 24.25L40.9219 24.25ZM37.0462 12.3934C37.5344 11.9053 37.5344 11.1138 37.0462 10.6256C36.5581 10.1375 35.7666 10.1375 35.2785 10.6256L31.7429 14.1612C31.2548 14.6493 31.2548 15.4408 31.7429 15.9289C32.2311 16.4171 33.0226 16.4171 33.5107 15.9289L37.0462 12.3934ZM35.2785 35.3744C35.7666 35.8625 36.5581 35.8625 37.0462 35.3744C37.5344 34.8862 37.5344 34.0948 37.0462 33.6066L33.5107 30.0711C33.0226 29.5829 32.2311 29.5829 31.7429 30.0711C31.2548 30.5592 31.2548 31.3507 31.7429 31.8388L35.2785 35.3744ZM25.9219 6.75C25.9219 6.05964 25.3622 5.5 24.6719 5.5C23.9815 5.5 23.4219 6.05964 23.4219 6.75L23.4219 11.75C23.4219 12.4404 23.9815 13 24.6719 13C25.3622 13 25.9219 12.4404 25.9219 11.75L25.9219 6.75ZM25.9219 34.25C25.9219 33.5596 25.3622 33 24.6719 33C23.9815 33 23.4219 33.5596 23.4219 34.25L23.4219 39.25C23.4219 39.9404 23.9815 40.5 24.6719 40.5C25.3622 40.5 25.9219 39.9404 25.9219 39.25L25.9219 34.25ZM15.833 15.9289C16.3212 16.4171 17.1127 16.4171 17.6008 15.9289C18.089 15.4408 18.089 14.6493 17.6008 14.1612L14.0653 10.6256C13.5771 10.1375 12.7857 10.1375 12.2975 10.6256C11.8094 11.1138 11.8094 11.9053 12.2975 12.3934L15.833 15.9289ZM17.6008 31.8388C18.089 31.3507 18.089 30.5592 17.6008 30.0711C17.1127 29.5829 16.3212 29.5829 15.833 30.0711L12.2975 33.6066C11.8093 34.0948 11.8093 34.8862 12.2975 35.3744C12.7857 35.8625 13.5771 35.8625 14.0653 35.3744L17.6008 31.8388ZM13.4219 24.25C14.1122 24.25 14.6719 23.6904 14.6719 23C14.6719 22.3096 14.1122 21.75 13.4219 21.75L8.42187 21.75C7.73152 21.75 7.17187 22.3096 7.17187 23C7.17187 23.6904 7.73152 24.25 8.42187 24.25L13.4219 24.25ZM24.6719 28C21.9104 28 19.6719 25.7614 19.6719 23C19.6719 20.2386 21.9104 18 24.6719 18C27.4333 18 29.6719 20.2386 29.6719 23C29.6719 25.7614 27.4333 28 24.6719 28ZM24.6719 30.5C20.5297 30.5 17.1719 27.1421 17.1719 23C17.1719 18.8579 20.5297 15.5 24.6719 15.5C28.814 15.5 32.1719 18.8579 32.1719 23C32.1719 27.1421 28.814 30.5 24.6719 30.5Z" fill="#757575"/>
</svg>
