<svg width="55" height="54" viewBox="0 0 55 54" fill="none" xmlns="http://www.w3.org/2000/svg">
<path d="M31.5459 31L35.9139 21.2H38.1539L42.5359 31H40.1559L36.5719 22.348H37.4679L33.8699 31H31.5459ZM33.7299 28.9L34.3319 27.178H39.3719L39.9879 28.9H33.7299Z" fill="#A2A3A5"/>
<path d="M21.1719 18H8.67188M21.1719 24H8.67188M21.1719 30H8.67188M21.1719 36H8.67188M32.6719 13C37.3385 13.3333 46.6719 17.5 46.6719 27C46.6719 36.5 37.3385 40.6667 32.6719 41C29.1719 41 27.6719 39.3 27.6719 32.5V21.5C27.6719 14.7 29.1719 13 32.6719 13Z" stroke="#A2A3A5" stroke-width="3" stroke-linecap="round"/>
</svg>
