<svg width="55" height="54" viewBox="0 0 55 54" fill="none" xmlns="http://www.w3.org/2000/svg">
<path d="M27.5675 6.11829C29.8853 6.11829 31.7438 7.99764 31.7438 10.2946C31.7438 12.6125 29.8853 14.471 27.5675 14.471C26.4598 14.471 25.3976 14.0309 24.6144 13.2477C23.8311 12.4645 23.3911 11.4023 23.3911 10.2946C23.3911 9.18699 23.8311 8.12472 24.6144 7.34151C25.3976 6.55829 26.4598 6.11829 27.5675 6.11829ZM28.3819 32.8259C31.8064 32.8259 34.7925 33.0348 37.2566 33.348C37.3819 27.6682 36.8807 22.6566 35.9201 20.7355C35.6487 20.1716 35.2728 19.6914 34.8761 19.2737L18.0245 33.7239C20.8645 33.2645 24.4352 32.8259 28.3819 32.8259ZM18.0872 37.4408C18.3587 41.0742 18.9016 44.7494 19.7786 47.8816H24.1011C23.4955 46.044 23.057 43.8932 22.7229 41.6171C22.7229 41.6171 27.5675 40.6983 32.412 41.6171C32.0779 43.8932 31.6394 46.044 31.0338 47.8816H35.3563C36.2751 44.645 36.818 40.8027 37.0895 37.0023C34.6881 36.7099 31.7438 36.4802 28.3819 36.4802C24.3517 36.4802 20.8436 36.9187 18.0872 37.4408ZM27.5675 16.5591C27.5675 16.5591 21.303 16.5591 19.2148 20.7355C18.5048 22.1554 18.0454 25.225 17.8993 29.0046L31.5767 17.2691C29.5095 16.5591 27.5675 16.5591 27.5675 16.5591ZM41.2867 13.7819L38.9062 11.0046L31.5767 17.29C32.7252 17.6867 33.9364 18.3132 34.8761 19.2737L41.2867 13.7819ZM45.6719 34.9976C45.4839 34.935 42.477 33.9536 37.2566 33.348C37.2357 34.5382 37.173 35.7703 37.0895 37.0023C41.7879 37.587 44.4816 38.4849 44.5234 38.4849L45.6719 34.9976ZM17.8993 29.0046L9.67188 36.0626L11.5303 39.1531C11.5721 39.1322 13.9944 38.1925 18.0872 37.4408C17.8575 34.4965 17.7948 31.5939 17.8993 29.0046Z" fill="#E82127"/>
</svg>
