<svg width="49" height="48" viewBox="0 0 49 48" fill="none" xmlns="http://www.w3.org/2000/svg">
<path fill-rule="evenodd" clip-rule="evenodd" d="M24.7074 21.1055H34.6571C36.2269 21.1055 37.4995 22.3781 37.4995 23.9479V34.5056C37.4995 36.0754 36.2269 37.348 34.6571 37.348H20.0387C18.4689 37.348 17.1963 36.0754 17.1963 34.5056V23.9479C17.1963 22.3781 18.4689 21.1055 20.0387 21.1055H21.8649V17.0426C21.8649 14.6879 19.956 12.779 17.6012 12.779C15.2465 12.779 13.3376 14.6879 13.3376 17.0426V24.1484H10.4951V17.0426C10.4951 13.118 13.6766 9.93652 17.6012 9.93652C21.5258 9.93652 24.7074 13.118 24.7074 17.0426V21.1055Z" fill="#A2A3A5"/>
</svg>
