<svg width="41" height="40" viewBox="0 0 41 40" fill="none" xmlns="http://www.w3.org/2000/svg">
<path fill-rule="evenodd" clip-rule="evenodd" d="M20.5 27C24.366 27 27.5 23.866 27.5 20C27.5 16.134 24.366 13 20.5 13C16.634 13 13.5 16.134 13.5 20C13.5 23.866 16.634 27 20.5 27ZM20.5 29C25.4706 29 29.5 24.9706 29.5 20C29.5 15.0294 25.4706 11 20.5 11C15.5294 11 11.5 15.0294 11.5 20C11.5 24.9706 15.5294 29 20.5 29Z" fill="#A2A3A5"/>
<path fill-rule="evenodd" clip-rule="evenodd" d="M20.5 32.5C27.4036 32.5 33 26.9036 33 20C33 13.0964 27.4036 7.5 20.5 7.5C13.5964 7.5 8 13.0964 8 20C8 26.9036 13.5964 32.5 20.5 32.5ZM20.5 35C28.7843 35 35.5 28.2843 35.5 20C35.5 11.7157 28.7843 5 20.5 5C12.2157 5 5.5 11.7157 5.5 20C5.5 28.2843 12.2157 35 20.5 35Z" fill="#A2A3A5"/>
</svg>
